<?xml version="1.0" encoding="UTF-8"?> <!-- Generator: Adobe Illustrator 25.2.0, SVG Export Plug-In . SVG Version: 6.00 Build 0) --> <svg xmlns="http://www.w3.org/2000/svg" xmlns:xlink="http://www.w3.org/1999/xlink" version="1.1" id="Layer_1" x="0px" y="0px" viewBox="0 0 469.79 153.52" style="enable-background:new 0 0 469.79 153.52;" xml:space="preserve"> <style type="text/css"> .st0{fill:#FFFFFF;} .st1{fill:#8DC63F;} </style> <g> <path class="st0" d="M75.69,68.73c-10.24,0-17.56-0.42-20.91-0.42c-21.74,0-37.84,2.24-37.84,15.26 c0,14.42,19.66,15.68,35.96,15.68c6.06,0,10.25-0.28,22.79-0.98V68.73z M46,106.52c-28.23,0-46-4.2-46-23.52 c0-21.83,31.36-22.25,55.2-22.25c5.44,0,11.92,0.42,20.28,0.42c0-18.9-0.21-23.24-34.08-23.24c-11.71,0-24.88,1.54-33.87,2.52 v-8.12c11.29-1.54,23.84-2.38,36.17-2.38c30.53,0,47.88,2.8,47.88,23.66v51.37C75.06,106.24,60.84,106.52,46,106.52"></path> <rect x="211.65" y="31.49" class="st0" width="16.31" height="73.48"></rect> <path class="st0" d="M219.83,22.78c-7.07,0-11.3-2.62-11.3-6.4c0-3.88,4.27-6.25,11.3-6.25c6.93,0,11.25,2.36,11.25,6.25 C231.09,20.14,226.25,22.78,219.83,22.78"></path> <path class="st0" d="M469.79,45.9V31.39h-16.19V45.9c0,12.12-10.21,18.15-27.09,18.15c-17.02,0-27.24-6.03-27.24-18.15V31.39 h-16.13V45.9c0,9.78,6.3,17.6,18.35,21.92c-12.05,4.32-18.35,12.15-18.35,21.92v15.02h16.13V89.74c0-12.12,10.22-18.15,27.24-18.15 c16.88,0,27.09,6.03,27.09,18.15v15.02h16.19V89.74c0-9.73-7.37-17.58-19.51-21.92C462.42,63.48,469.79,55.63,469.79,45.9"></path> <path class="st1" d="M151.49,146.19c-24.56,0-39.29-7.66-39.29-21.13c0-13.47,15.16-20.41,39.29-20.41 c24.13,0,39.08,7.05,39.08,20.41C190.57,138.52,175.83,146.19,151.49,146.19 M124.23,54.59c0-12.12,10.52-17.51,27.24-17.51 c16.72,0,27.09,5.48,27.09,17.51c0,12.12-10.21,18.15-27.09,18.15C134.45,72.74,124.23,66.71,124.23,54.59 M155.97,97.37V80.1 c23.38-1.16,40.51-11.34,40.51-25.51c0-6.97-3.49-12.71-9.85-16.93h9.01v-8.05h-44.17c-28.1,0-45.19,9.46-45.19,24.98 c0,14.33,15.13,24.46,40.68,25.52v17.26c-31.96,0.88-51.06,11.21-51.06,27.68c0,16.84,20.68,28.47,55.58,28.47 c31.67,0,55.36-11.73,55.36-28.47C206.85,108.58,187.57,98.26,155.97,97.37"></path> <rect x="250.43" class="st0" width="16.1" height="104.98"></rect> <path class="st0" d="M369.7,62.83V31.48H353.5v38.57c0,12.12-10.21,18.15-27.09,18.15c-17.03,0-27.24-6.03-27.24-18.15V31.48 h-16.13v38.57c0,15.15,15.1,25.62,43.37,25.62c10.62,0,19.86-1.81,27.04-5l0.05,15.97c0,18.89-0.21,23.23-34.08,23.23 c-11.71,0-24.88-1.54-33.87-2.52v8.12c11.29,1.54,23.84,2.38,36.17,2.38c30.53,0,47.88-2.8,47.98-23.65L369.7,62.83L369.7,62.83z"></path> </g> </svg> 