<?xml version="1.0" encoding="UTF-8"?> <svg xmlns="http://www.w3.org/2000/svg" width="878" height="283" viewBox="0 0 878 283" fill="none"><path d="M134.027 73.4799C135.956 75.3063 138.468 76.5039 141.22 76.6985C143.971 76.8932 146.513 76.0698 148.547 74.5428C146.648 72.7463 144.166 71.5786 141.399 71.354C141.115 71.339 140.816 71.3241 140.532 71.3241C138.094 71.3241 135.851 72.1025 134.027 73.4649" fill="white"></path><path d="M134.478 208.44C136.377 210.237 138.859 211.419 141.626 211.629C144.392 211.838 146.964 211.045 148.998 209.518C147.069 207.692 144.556 206.494 141.805 206.299C141.536 206.284 141.267 206.269 140.997 206.269C138.56 206.269 136.302 207.078 134.478 208.455" fill="white"></path><path d="M118.621 73.7019C115.989 74.4804 113.925 76.187 112.609 78.4326C115.017 79.5105 117.738 79.765 120.34 78.9716C122.942 78.1781 125.021 76.4715 126.381 74.2857C124.916 73.627 123.316 73.2677 121.701 73.2677C120.684 73.2677 119.637 73.4175 118.621 73.7169" fill="white"></path><path d="M162.678 204.022C160.076 204.816 157.998 206.522 156.637 208.708C159.044 209.786 161.766 210.055 164.398 209.277C167.03 208.498 169.093 206.792 170.409 204.546C168.959 203.902 167.388 203.543 165.803 203.543C164.757 203.543 163.71 203.693 162.678 204.007" fill="white"></path><path d="M98.7491 84.4371C96.6706 86.2186 95.4295 88.7038 95.0258 91.4135C97.5379 91.5332 100.05 90.7248 102.129 88.9433C104.192 87.1618 105.478 84.7066 105.927 82.0568C105.717 82.0568 105.508 82.0418 105.299 82.0418C102.966 82.0418 100.663 82.8203 98.7491 84.4521" fill="white"></path><path d="M180.888 194.052C178.825 195.833 177.539 198.289 177.09 200.953C179.632 201.103 182.189 200.34 184.268 198.558C186.346 196.777 187.588 194.291 187.991 191.582C187.827 191.582 187.677 191.582 187.513 191.582C185.15 191.582 182.832 192.39 180.888 194.067" fill="white"></path><path d="M84.7631 102.851C83.522 105.44 83.2378 108.39 83.7463 111.189C86.0042 110.261 87.9781 108.465 89.2341 105.89C90.4902 103.315 90.8042 100.395 90.3257 97.6108C88.0079 98.4791 86.0192 100.261 84.778 102.851" fill="white"></path><path d="M193.776 177.107C192.52 179.682 192.206 182.601 192.685 185.386C195.002 184.518 196.991 182.736 198.232 180.146C199.474 177.556 199.758 174.607 199.249 171.807C196.991 172.736 195.017 174.532 193.761 177.107" fill="white"></path><path d="M78.222 126.506C77.893 129.515 78.5061 132.464 79.7921 134.934C81.5416 133.108 82.7678 130.563 83.1117 127.569C83.4557 124.574 82.8426 121.625 81.5416 119.14C79.7622 120.937 78.551 123.496 78.222 126.506Z" fill="white"></path><path d="M199.911 155.414C199.568 158.408 200.181 161.357 201.482 163.842C203.261 162.046 204.472 159.486 204.801 156.477C205.13 153.467 204.517 150.518 203.231 148.048C201.482 149.874 200.255 152.419 199.911 155.414Z" fill="white"></path><path d="M79.1595 151.761C79.6978 154.726 81.0586 157.241 82.9128 159.052C84.0193 156.642 84.438 153.752 83.9147 150.788C83.3764 147.824 81.9857 145.264 80.1016 143.438C79.01 145.878 78.6361 148.812 79.1595 151.776" fill="white"></path><path d="M199.105 132.222C199.643 135.186 201.034 137.746 202.918 139.573C204.01 137.133 204.383 134.198 203.86 131.234C203.322 128.27 201.961 125.755 200.107 123.958C199 126.369 198.581 129.258 199.105 132.222Z" fill="white"></path><path d="M86.8886 174.965C88.1895 177.51 90.1484 179.307 92.4064 180.28C92.8101 177.63 92.4064 174.786 91.0905 172.226C89.7746 169.666 87.7708 167.824 85.5278 166.851C85.1839 169.561 85.6026 172.42 86.9035 174.965" fill="white"></path><path d="M191.925 110.772C193.241 113.331 195.245 115.173 197.488 116.146C197.831 113.436 197.413 110.577 196.127 108.032C194.826 105.487 192.852 103.69 190.609 102.717C190.205 105.367 190.609 108.212 191.925 110.772Z" fill="white"></path><path d="M100.618 193.544C102.592 195.43 105.014 196.403 107.482 196.523C107.108 193.918 105.882 191.418 103.893 189.516C101.904 187.6 99.4667 186.627 97.0443 186.552C97.463 189.187 98.6443 191.672 100.618 193.544Z" fill="white"></path><path d="M179.124 93.4772C181.113 95.3785 183.55 96.3666 185.973 96.4414C185.554 93.8066 184.373 91.3214 182.399 89.4501C180.425 87.5638 178.002 86.5907 175.535 86.4709C175.909 89.0609 177.135 91.5759 179.124 93.4772Z" fill="white"></path><path d="M113.809 200.76C114.99 203.065 116.919 204.981 119.416 206.074C121.914 207.167 124.59 207.287 126.998 206.568C125.801 204.248 123.843 202.301 121.33 201.194C119.895 200.565 118.429 200.266 116.994 200.266C115.902 200.266 114.826 200.445 113.809 200.76Z" fill="white"></path><path d="M156.006 76.4287C157.202 78.7492 159.161 80.6954 161.673 81.8032C164.185 82.911 166.832 82.9859 169.194 82.2373C168.013 79.9319 166.099 78.0156 163.587 76.9228C162.136 76.279 160.611 75.9796 159.116 75.9796C158.054 75.9796 157.007 76.1293 155.991 76.4287" fill="white"></path><path d="M148.634 65.7986C150.324 68.2388 152.776 70.1401 155.722 71.0084C158.668 71.8767 161.628 71.5922 164.156 70.4096C162.496 68.0143 160.058 66.1429 157.113 65.2447C155.916 64.8854 154.72 64.7207 153.539 64.7207C151.819 64.7207 150.144 65.095 148.634 65.7986Z" fill="white"></path><path d="M118.861 212.571C120.521 214.967 122.958 216.838 125.904 217.721C128.85 218.605 131.841 218.35 134.383 217.182C132.693 214.742 130.241 212.841 127.295 211.973C126.143 211.628 124.977 211.463 123.841 211.463C122.091 211.463 120.401 211.853 118.846 212.571" fill="white"></path><path d="M131.825 62.3693C128.79 62.5938 126.158 63.9562 124.229 66.067C126.607 67.8186 129.493 68.7318 132.513 68.4923C135.534 68.2527 138.166 66.8754 140.124 64.8245C137.986 63.2525 135.399 62.3244 132.693 62.3244C132.409 62.3244 132.109 62.3244 131.825 62.3543" fill="white"></path><path d="M150.489 214.488C147.468 214.728 144.837 216.105 142.878 218.156C145.255 219.892 148.156 220.851 151.177 220.626C154.197 220.401 156.844 219.039 158.773 216.928C156.65 215.371 154.123 214.473 151.461 214.473C151.147 214.473 150.818 214.473 150.504 214.518" fill="white"></path><path d="M107.833 69.3026C105.186 70.7397 103.257 73.15 102.21 75.9945C104.917 76.713 107.833 76.4436 110.479 74.9914C113.126 73.5393 115.07 71.1739 116.162 68.4043C115.145 68.1199 114.083 67.9702 113.036 67.9702C111.272 67.9702 109.492 68.3894 107.833 69.3026Z" fill="white"></path><path d="M172.529 207.991C169.882 209.428 167.939 211.809 166.847 214.578C169.583 215.357 172.529 215.132 175.191 213.695C177.853 212.258 179.767 209.848 180.813 207.003C179.856 206.749 178.884 206.614 177.897 206.614C176.088 206.614 174.249 207.063 172.529 207.991Z" fill="white"></path><path d="M88.5116 85.9936C86.5826 88.5087 85.6107 91.6526 85.5359 94.8114C88.1976 94.3473 90.7546 92.8502 92.6836 90.3501C94.6275 87.85 95.6294 84.7511 95.7191 81.6222C93.0126 82.0264 90.4406 83.4786 88.5116 85.9936Z" fill="white"></path><path d="M190.336 192.644C188.392 195.144 187.39 198.243 187.3 201.372C190.007 200.967 192.579 199.515 194.508 197C196.437 194.485 197.409 191.341 197.483 188.182C194.822 188.647 192.28 190.144 190.336 192.644Z" fill="white"></path><path d="M76.0841 110.141C75.0523 113.33 75.0672 116.683 75.9046 119.662C78.2224 118.105 80.1215 115.62 81.1682 112.447C82.2149 109.273 82.2149 105.919 81.3626 102.91C79.0299 104.452 77.1308 106.937 76.099 110.126" fill="white"></path><path d="M201.852 170.534C200.82 173.708 200.82 177.061 201.673 180.07C204.005 178.528 205.904 176.043 206.936 172.854C207.968 169.665 207.953 166.312 207.131 163.333C204.813 164.89 202.914 167.36 201.867 170.549" fill="white"></path><path d="M71.4459 137.807C71.3711 141.16 72.2832 144.214 73.8832 146.61C75.6328 144.259 76.7393 141.22 76.8141 137.867C76.9038 134.513 75.9468 131.399 74.3169 128.974C72.5823 131.37 71.5057 134.453 71.4309 137.807" fill="white"></path><path d="M206.176 145.113C206.087 148.466 207.044 151.58 208.674 154.006C210.408 151.61 211.485 148.526 211.56 145.173C211.649 141.82 210.722 138.765 209.107 136.37C207.358 138.721 206.251 141.76 206.176 145.113Z" fill="white"></path><path d="M74.6435 164.876C75.4809 167.945 77.2155 170.385 79.4435 171.972C80.4753 169.187 80.6697 165.999 79.8174 162.9C78.965 159.801 77.2005 157.316 74.9725 155.729C73.9856 158.588 73.8061 161.792 74.6435 164.876Z" fill="white"></path><path d="M203.184 120.096C204.036 123.195 205.816 125.68 208.029 127.267C209.016 124.408 209.21 121.189 208.358 118.12C207.52 115.051 205.786 112.626 203.558 111.024C202.526 113.809 202.332 116.997 203.184 120.096Z" fill="white"></path><path d="M85.3932 188.333C87.1129 190.849 89.5353 192.495 92.1821 193.214C92.3465 190.295 91.5989 187.286 89.8643 184.741C88.1297 182.196 85.6923 180.549 83.0904 179.89C82.9409 182.854 83.6886 185.833 85.4082 188.348" fill="white"></path><path d="M193.148 98.2559C194.883 100.801 197.32 102.448 199.922 103.106C200.072 100.142 199.324 97.1631 197.604 94.648C195.885 92.1329 193.462 90.4862 190.816 89.7825C190.651 92.7018 191.399 95.7109 193.148 98.2559Z" fill="white"></path><path d="M98.1233 199.306C98.9009 202.106 100.546 204.636 103.013 206.417C105.48 208.214 108.366 208.962 111.148 208.753C110.37 205.938 108.68 203.363 106.198 201.552C104.045 199.995 101.607 199.246 99.2149 199.246C98.8411 199.246 98.4822 199.261 98.1084 199.306" fill="white"></path><path d="M171.858 74.225C172.635 77.0394 174.325 79.6144 176.807 81.4258C179.29 83.2223 182.146 83.9409 184.897 83.6864C184.12 80.8869 182.475 78.3569 179.993 76.5753C177.779 74.9735 175.252 74.21 172.755 74.21C172.456 74.21 172.157 74.21 171.858 74.2399" fill="white"></path><path d="M166.222 60.9207C167.508 63.9747 169.751 66.6245 172.757 68.2713C175.762 69.9181 179.037 70.3073 182.058 69.6337C180.787 66.6245 178.559 64.0196 175.553 62.3429C173.445 61.1752 171.187 60.6063 168.989 60.6063C168.046 60.6063 167.119 60.7111 166.222 60.9058" fill="white"></path><path d="M100.944 213.351C102.215 216.36 104.443 218.965 107.448 220.641C110.454 222.303 113.759 222.737 116.779 222.064C115.493 219.01 113.25 216.36 110.245 214.713C108.166 213.575 105.953 213.036 103.785 213.036C102.828 213.036 101.871 213.141 100.929 213.351" fill="white"></path><path d="M139.651 55.4256C141.849 57.8957 144.78 59.5724 148.114 60.0365C151.449 60.4857 154.619 59.6323 157.206 57.8658C155.023 55.4106 152.077 53.689 148.742 53.2099C148.129 53.1201 147.516 53.0752 146.918 53.0752C144.256 53.0752 141.744 53.9285 139.651 55.4256Z" fill="white"></path><path d="M125.818 225.132C128.001 227.587 130.947 229.309 134.281 229.788C137.616 230.267 140.801 229.414 143.373 227.572C141.175 225.102 138.244 223.425 134.909 222.976C134.311 222.901 133.728 222.857 133.16 222.857C130.483 222.857 127.956 223.695 125.818 225.147" fill="white"></path><path d="M121.091 55.0211C117.891 55.9493 115.259 58.12 113.479 60.9645C116.261 62.4016 119.491 62.7909 122.691 61.8477C125.891 60.9046 128.537 58.7937 130.332 56.0391C128.507 55.066 126.504 54.542 124.44 54.542C123.334 54.542 122.197 54.6917 121.076 55.0211" fill="white"></path><path d="M160.315 221.149C157.117 222.092 154.471 224.203 152.662 226.957C155.473 228.454 158.716 228.903 161.915 227.975C165.113 227.047 167.744 224.876 169.523 222.032C167.759 221.134 165.831 220.64 163.828 220.64C162.662 220.64 161.481 220.804 160.315 221.149Z" fill="white"></path><path d="M96.3611 68.5553C93.6994 70.8308 91.9349 74.0046 91.1423 77.4329C94.148 77.5527 97.2433 76.5347 99.92 74.289C102.582 72.0285 104.376 68.9146 105.184 65.5162C104.914 65.5013 104.645 65.4863 104.376 65.4863C101.61 65.4863 98.7985 66.4893 96.376 68.5553" fill="white"></path><path d="M183.1 208.71C180.439 210.97 178.644 214.084 177.837 217.482C180.872 217.692 183.983 216.719 186.644 214.443C189.306 212.168 191.07 208.994 191.863 205.566C191.699 205.566 191.534 205.566 191.355 205.566C188.513 205.566 185.613 206.599 183.085 208.725" fill="white"></path><path d="M77.4451 91.8458C75.6058 95.0795 74.8731 98.7174 75.0974 102.161C77.9535 101.008 80.5853 98.7773 82.4246 95.5735C84.2638 92.3698 85.0115 88.7319 84.7723 85.2438C81.8863 86.3516 79.2694 88.6122 77.4451 91.8458Z" fill="white"></path><path d="M200.581 187.407C198.742 190.61 197.994 194.248 198.233 197.736C201.119 196.629 203.736 194.368 205.56 191.134C207.385 187.916 208.132 184.263 207.893 180.82C205.022 181.972 202.405 184.203 200.566 187.407" fill="white"></path><path d="M66.198 120.815C65.3606 124.437 65.6746 127.985 66.8859 130.965C69.3083 128.824 71.1924 125.785 72.0448 122.162C72.8821 118.539 72.5532 114.931 71.327 111.892C68.9046 114.093 67.0503 117.192 66.213 120.815" fill="white"></path><path d="M210.977 160.831C210.14 164.454 210.469 168.062 211.695 171.101C214.117 168.9 215.971 165.801 216.809 162.178C217.646 158.555 217.332 155.007 216.121 152.028C213.684 154.169 211.814 157.208 210.962 160.831" fill="white"></path><path d="M63.5952 150.998C63.8195 154.532 65.1653 157.586 67.2288 159.846C68.9784 157.062 69.9055 153.648 69.6662 150.07C69.427 146.507 68.0662 143.378 66.0027 141.133C64.283 144.007 63.3709 147.45 63.5952 150.983" fill="white"></path><path d="M213.341 132.914C213.581 136.477 214.941 139.606 217.005 141.851C218.725 138.977 219.637 135.533 219.412 132C219.188 128.467 217.842 125.413 215.779 123.153C214.029 125.937 213.102 129.351 213.341 132.929" fill="white"></path><path d="M70.0243 179.053C71.3253 182.197 73.5982 184.563 76.3048 185.97C77.1421 182.841 76.9926 179.383 75.6767 176.209C74.3608 173.02 72.0879 170.655 69.3963 169.322C68.5739 172.496 68.7085 175.924 70.0243 179.068" fill="white"></path><path d="M207.341 106.789C208.657 109.977 210.93 112.343 213.621 113.675C214.444 110.501 214.309 107.073 212.993 103.929C211.692 100.785 209.419 98.435 206.713 97.0278C205.875 100.157 206.025 103.615 207.341 106.789Z" fill="white"></path><path d="M85.1116 202.899C87.3995 205.429 90.3602 206.941 93.4257 207.375C93.2014 204.142 91.9602 200.923 89.6574 198.378C87.3696 195.833 84.4238 194.366 81.3733 194.007C81.5826 197.225 82.8237 200.369 85.0966 202.899" fill="white"></path><path d="M193.343 84.5985C195.631 87.1585 198.577 88.6106 201.627 88.9699C201.418 85.7512 200.177 82.6074 197.904 80.0773C195.616 77.5473 192.655 76.0352 189.59 75.6011C189.799 78.8348 191.055 82.0535 193.358 84.5985" fill="white"></path><path d="M186.437 59.8115C187.155 63.4344 188.994 66.8478 191.895 69.3628C194.796 71.8779 198.265 73.0606 201.705 73.0606C201.002 69.4826 199.163 66.1142 196.262 63.5991C193.376 61.084 189.892 59.8265 186.467 59.8265H186.437" fill="white"></path><path d="M81.3108 209.939C82.0136 213.502 83.8528 216.87 86.7538 219.4C89.6547 221.93 93.1389 223.188 96.5781 223.173C95.8604 219.55 94.0211 216.137 91.1202 213.622C88.2342 211.122 84.765 209.924 81.3556 209.924H81.3257" fill="white"></path><path d="M158.788 47.5038C160.613 50.7075 163.424 53.2375 166.953 54.525C170.467 55.8125 174.115 55.6329 177.33 54.3304C175.506 51.1417 172.695 48.5667 169.166 47.2642C167.536 46.6504 165.891 46.366 164.276 46.366C162.377 46.366 160.523 46.7552 158.803 47.5038" fill="white"></path><path d="M105.688 228.667C107.512 231.856 110.324 234.431 113.853 235.749C117.382 237.066 121.015 236.886 124.23 235.494C122.406 232.29 119.595 229.76 116.066 228.473C114.436 227.874 112.761 227.59 111.131 227.59C109.247 227.59 107.408 227.964 105.688 228.652" fill="white"></path><path d="M138.705 42.6553C135.011 42.9098 131.677 44.6314 129.105 47.3111C131.811 49.5268 135.236 50.7245 138.914 50.47C142.608 50.2155 145.957 48.5387 148.529 45.9788C146.047 43.8829 142.952 42.6403 139.602 42.6403C139.303 42.6403 139.004 42.6403 138.69 42.6702" fill="white"></path><path d="M144.093 232.544C140.399 232.798 137.05 234.475 134.478 237.035C137.184 239.326 140.624 240.598 144.317 240.344C148.011 240.089 151.345 238.368 153.917 235.688C151.465 233.667 148.399 232.499 145.095 232.499C144.766 232.499 144.437 232.499 144.108 232.529" fill="white"></path><path d="M108.785 51.4709C105.376 53.3123 102.744 56.3514 101.129 59.8695C104.359 60.7228 107.963 60.3485 111.372 58.5371C114.782 56.7256 117.413 53.7465 119.058 50.2583C117.892 49.914 116.666 49.7343 115.425 49.7343C113.226 49.7343 110.968 50.2882 108.8 51.456" fill="white"></path><path d="M171.646 224.443C168.237 226.255 165.605 229.234 163.96 232.722C167.205 233.68 170.824 233.351 174.218 231.524C177.628 229.683 180.259 226.644 181.874 223.126C180.783 222.841 179.646 222.692 178.48 222.692C176.222 222.692 173.874 223.261 171.631 224.458" fill="white"></path><path d="M83.0054 72.2962C80.2839 75.3652 78.6689 79.1528 78.1455 82.9403C81.51 82.3715 84.8745 80.575 87.596 77.5359C90.3176 74.4969 91.9475 70.7093 92.4559 66.8768C89.0764 67.4008 85.7269 69.2272 83.0054 72.2962Z" fill="white"></path><path d="M195.426 205.461C192.704 208.5 191.075 212.288 190.566 216.12C193.946 215.596 197.295 213.77 200.017 210.701C202.723 207.632 204.353 203.844 204.876 200.057C201.512 200.626 198.147 202.422 195.426 205.461Z" fill="white"></path><path d="M64.296 101.1C62.5764 104.843 62.1128 108.765 62.7558 112.298C65.8811 110.547 68.6026 107.687 70.3372 103.945C72.0717 100.202 72.5204 96.2198 71.8624 92.6269C68.7372 94.4383 66.0306 97.3576 64.296 101.1Z" fill="white"></path><path d="M212.677 179.038C210.943 182.78 210.494 186.777 211.152 190.355C214.277 188.544 216.984 185.625 218.718 181.882C220.453 178.139 220.902 174.217 220.259 170.684C217.133 172.436 214.412 175.295 212.677 179.038Z" fill="white"></path><path d="M54.6962 133.271C54.1579 137.164 54.9205 140.816 56.6551 143.766C59.1673 141.161 60.9617 137.658 61.5 133.72C62.0383 129.783 61.2607 126.07 59.5261 123.136C57.014 125.846 55.2495 129.379 54.6962 133.271Z" fill="white"></path><path d="M221.498 149.258C220.959 153.196 221.737 156.908 223.472 159.843C225.984 157.133 227.748 153.6 228.302 149.707C228.84 145.8 228.077 142.162 226.343 139.228C223.816 141.833 222.036 145.321 221.498 149.258Z" fill="white"></path><path d="M55.385 165.293C56.1028 169.021 58.0317 172.12 60.6635 174.305C62.2785 171.102 62.8916 167.314 62.1738 163.541C61.4561 159.769 59.5121 156.655 56.8953 154.559C55.2953 157.823 54.6672 161.565 55.385 165.293Z" fill="white"></path><path d="M220.829 119.454C221.547 123.227 223.476 126.341 226.107 128.437C227.707 125.173 228.335 121.43 227.618 117.703C226.9 113.975 224.971 110.876 222.339 108.69C220.724 111.894 220.111 115.682 220.829 119.454Z" fill="white"></path><path d="M66.4489 194.817C68.3629 198.11 71.2489 200.461 74.4789 201.658C74.9723 198.08 74.3293 194.293 72.4004 190.984C70.4863 187.661 67.6003 185.385 64.3854 184.262C63.8919 187.81 64.5199 191.523 66.4489 194.817Z" fill="white"></path><path d="M210.604 91.997C212.518 95.3205 215.389 97.596 218.619 98.7188C219.112 95.1708 218.484 91.458 216.555 88.1645C214.641 84.8709 211.755 82.5206 208.525 81.3229C208.032 84.9009 208.675 88.6885 210.604 91.997Z" fill="white"></path><path d="M212.44 75.0792C215.027 78.4925 218.541 80.6183 222.265 81.4268C222.295 77.3847 221.069 73.2827 218.482 69.8394C215.895 66.4112 212.396 64.2105 208.657 63.4021C208.612 67.519 209.854 71.6659 212.44 75.0792Z" fill="white"></path><path d="M64.5377 213.14C67.1246 216.569 70.6237 218.769 74.377 219.578C74.4218 215.461 73.1807 211.314 70.5938 207.901C68.0069 204.487 64.4928 202.361 60.7694 201.553C60.7395 205.595 61.9657 209.697 64.5526 213.14" fill="white"></path><path d="M181.37 43.4502C182.641 47.3575 185.138 50.7858 188.667 53.0164C192.196 55.2471 196.204 55.9208 199.987 55.277C198.716 51.3846 196.234 47.9114 192.705 45.6509C190.088 43.9741 187.202 43.1657 184.346 43.1657C183.344 43.1657 182.357 43.2705 181.385 43.4502" fill="white"></path><path d="M83.0385 227.708C84.3096 231.6 86.7918 235.074 90.3208 237.334C93.8498 239.595 97.8573 240.283 101.64 239.535C100.369 235.628 97.8872 232.199 94.3432 229.969C91.6516 228.277 88.6909 227.469 85.775 227.469C84.8628 227.469 83.9357 227.543 83.0385 227.708Z" fill="white"></path><path d="M149.157 36.1735C151.595 39.2275 155.049 41.3383 159.116 41.9372C163.184 42.536 167.191 41.518 170.571 39.3472C168.133 36.2184 164.694 34.0177 160.627 33.4039C159.879 33.2841 159.131 33.2392 158.384 33.2392C155.094 33.2392 151.909 34.3021 149.157 36.1735Z" fill="white"></path><path d="M112.435 243.651C114.872 246.78 118.312 248.981 122.379 249.595C126.446 250.208 130.469 249.116 133.848 246.825C131.411 243.771 127.956 241.66 123.889 241.061C123.112 240.942 122.349 240.897 121.571 240.897C118.312 240.897 115.156 241.9 112.42 243.651" fill="white"></path><path d="M126.133 35.8754C122.021 37.0581 118.492 39.7378 115.92 43.1811C119.24 44.8728 123.232 45.3369 127.345 44.1691C131.457 43.0014 134.986 40.4115 137.543 36.9982C135.434 35.8455 133.057 35.2317 130.56 35.2317C129.109 35.2317 127.629 35.4412 126.118 35.8754" fill="white"></path><path d="M155.667 238.814C151.555 239.981 148.026 242.571 145.469 245.985C148.788 247.796 152.781 248.305 156.893 247.122C161.005 245.94 164.549 243.26 167.106 239.817C165.028 238.754 162.695 238.185 160.228 238.185C158.747 238.185 157.222 238.394 155.682 238.829" fill="white"></path><path d="M93.4439 52.3695C89.8102 55.0642 87.1934 58.7769 85.7729 62.7891C89.5561 62.9687 93.6084 61.816 97.2421 59.1512C100.876 56.4864 103.508 52.7737 104.913 48.7167C104.599 48.7017 104.285 48.6867 103.971 48.6867C100.457 48.6867 96.7636 49.8993 93.429 52.3695" fill="white"></path><path d="M185.764 223.845C182.13 226.51 179.499 230.223 178.093 234.28C181.891 234.519 185.943 233.322 189.577 230.627C193.211 227.932 195.828 224.22 197.248 220.207C196.979 220.207 196.725 220.192 196.456 220.192C192.897 220.192 189.158 221.375 185.764 223.845Z" fill="white"></path><path d="M66.6463 79.213C63.9248 82.8659 62.564 87.0277 62.4743 91.0099C66.2575 89.8572 69.8613 87.402 72.5828 83.7491C75.3043 80.0963 76.68 75.8596 76.7697 71.8025C72.9716 73.0301 69.3678 75.5602 66.6463 79.213Z" fill="white"></path><path d="M210.436 199.247C207.714 202.9 206.338 207.137 206.249 211.194C210.047 209.966 213.651 207.436 216.372 203.783C219.094 200.13 220.469 195.969 220.559 191.971C216.776 193.124 213.172 195.594 210.451 199.247" fill="white"></path><path d="M49.0179 111.909C47.5525 116.011 47.5675 120.158 48.7936 123.766C52.1133 121.535 54.8348 118.167 56.3152 114.005C57.7806 109.858 57.7657 105.637 56.5395 102.029C53.2049 104.379 50.4834 107.792 49.0179 111.894" fill="white"></path><path d="M226.705 168.977C225.24 173.124 225.255 177.345 226.481 180.953C229.815 178.603 232.537 175.189 234.002 171.088C235.468 166.986 235.453 162.839 234.227 159.231C230.907 161.461 228.185 164.83 226.72 168.992" fill="white"></path><path d="M42.569 146.864C42.5092 151.086 43.9148 154.919 46.2924 157.913C48.7597 154.814 50.2849 150.847 50.3447 146.58C50.4045 142.313 49.0139 138.466 46.6213 135.561C44.154 138.72 42.6288 142.658 42.569 146.864Z" fill="white"></path><path d="M232.655 136.416C232.595 140.683 234.001 144.53 236.378 147.434C238.86 144.276 240.371 140.338 240.43 136.132C240.49 131.91 239.085 128.077 236.707 125.083C234.24 128.182 232.715 132.149 232.655 136.416Z" fill="white"></path><path d="M47.9849 181.585C49.3307 185.627 51.9326 188.86 55.1774 190.941C56.5083 187.184 56.6578 182.902 55.312 178.845C53.9662 174.788 51.3643 171.614 48.1045 169.623C46.7737 173.366 46.6391 177.543 47.9699 181.585" fill="white"></path><path d="M227.693 104.154C229.039 108.211 231.641 111.385 234.901 113.376C236.232 109.633 236.366 105.457 235.035 101.415C233.689 97.3725 231.088 94.1388 227.843 92.0579C226.512 95.8156 226.362 100.097 227.708 104.154" fill="white"></path><path d="M233.494 86.2033C235.542 90.5298 238.877 93.6737 242.75 95.4402C243.692 91.0538 243.273 86.3081 241.225 81.9516C239.191 77.6101 235.871 74.3914 231.983 72.6099C231.011 77.0712 231.43 81.8618 233.479 86.2033" fill="white"></path><path d="M41.7803 201.04C43.8139 205.381 47.1336 208.6 51.0215 210.381C51.9934 205.92 51.5747 201.13 49.5261 196.788C47.4775 192.462 44.1429 189.318 40.27 187.551C39.3279 191.938 39.7466 196.683 41.7952 201.04" fill="white"></path><path d="M212.593 56.5604C215.943 59.824 220.129 61.5157 224.376 61.7103C223.868 57.1742 221.954 52.8178 218.619 49.5092C215.285 46.2007 211.098 44.524 206.806 44.4192C207.314 48.9703 209.243 53.2818 212.593 56.5604Z" fill="white"></path><path d="M64.3898 233.486C67.7244 236.794 71.9113 238.471 76.2029 238.576C75.6945 234.025 73.7655 229.713 70.416 226.434C67.0664 223.171 62.8795 221.479 58.6178 221.284C59.1262 225.821 61.0402 230.177 64.3748 233.486" fill="white"></path><path d="M173.441 28.8494C175.415 32.7418 178.689 35.8706 182.981 37.4875C187.273 39.1043 191.863 38.9546 196.02 37.3977C194.076 33.4155 190.831 30.1968 186.54 28.565C184.566 27.8164 182.517 27.4571 180.469 27.4571C178.091 27.4571 175.714 27.9362 173.456 28.8494" fill="white"></path><path d="M87.01 245.598C88.9539 249.581 92.1988 252.799 96.4904 254.431C100.782 256.063 105.388 255.838 109.575 254.147C107.601 250.239 104.326 247.125 100.034 245.509C97.9708 244.73 95.8324 244.356 93.7091 244.356C91.4212 244.356 89.1483 244.79 86.995 245.598" fill="white"></path><path d="M148.485 23.0427C143.76 23.3571 139.304 25.4231 135.76 28.552C138.99 31.1868 143.221 32.639 147.962 32.3545C152.687 32.0701 157.113 30.079 160.657 26.995C157.741 24.4799 153.958 23.0128 149.726 23.0128C149.322 23.0128 148.919 23.0128 148.5 23.0577" fill="white"></path><path d="M135.069 250.642C130.344 250.926 125.918 252.917 122.374 256.001C125.574 258.756 129.806 260.268 134.531 259.953C139.256 259.639 143.712 257.573 147.256 254.444C144.295 252.034 140.482 250.612 136.236 250.612C135.847 250.612 135.458 250.612 135.054 250.642" fill="white"></path><path d="M109.261 33.1773C104.7 35.2283 101.021 38.6566 98.5989 42.6687C102.681 43.7766 107.332 43.4772 111.892 41.4561C116.438 39.4351 120.132 36.0068 122.569 31.9497C121.029 31.5156 119.414 31.291 117.739 31.291C114.988 31.291 112.102 31.9048 109.261 33.1773Z" fill="white"></path><path d="M171.137 241.527C166.591 243.548 162.898 246.976 160.46 251.033C164.528 252.186 169.208 251.856 173.754 249.805C178.315 247.754 181.993 244.326 184.416 240.314C182.875 239.895 181.26 239.685 179.586 239.685C176.834 239.685 173.963 240.269 171.122 241.542" fill="white"></path><path d="M74.103 55.9906C70.3348 59.3141 67.9123 63.5059 66.9105 67.8174C71.2768 67.4581 75.7479 65.6467 79.5161 62.3232C83.2844 58.9997 85.7367 54.733 86.7535 50.3466C82.3573 50.7658 77.8563 52.6671 74.0881 55.9906" fill="white"></path><path d="M203.483 220.658C199.715 223.982 197.262 228.248 196.246 232.635C200.642 232.215 205.143 230.314 208.911 226.991C212.679 223.667 215.102 219.475 216.104 215.164C211.722 215.523 207.266 217.335 203.498 220.658" fill="white"></path><path d="M47.6054 87.3118C45.0933 91.4287 44.1811 95.9349 44.7045 100.157C48.8166 98.5248 52.5251 95.5007 55.0522 91.3389C57.5793 87.177 58.5064 82.581 57.983 78.3743C53.841 80.1408 50.1176 83.1948 47.5905 87.3118" fill="white"></path><path d="M227.945 191.641C225.418 195.803 224.491 200.399 225.015 204.605C229.172 202.839 232.88 199.785 235.407 195.668C237.919 191.551 238.831 187.045 238.308 182.823C234.196 184.455 230.487 187.479 227.96 191.641" fill="white"></path><path d="M32.7734 123.793C31.7566 128.359 32.4295 132.866 34.3435 136.683C37.723 133.914 40.265 129.961 41.2968 125.32C42.3286 120.694 41.6557 116.173 39.7118 112.461C36.3173 115.305 33.7902 119.212 32.7734 123.793Z" fill="white"></path><path d="M241.718 157.672C240.686 162.298 241.359 166.819 243.303 170.532C246.697 167.688 249.224 163.78 250.241 159.199C251.258 154.633 250.585 150.127 248.671 146.31C245.292 149.079 242.749 153.046 241.718 157.672Z" fill="white"></path><path d="M30.8789 162.807C31.4321 167.523 33.5406 171.639 36.606 174.679C38.8939 170.906 40.0154 166.295 39.477 161.564C38.9238 156.833 36.8004 152.761 33.72 149.827C31.4321 153.585 30.3405 158.091 30.8938 162.792" fill="white"></path><path d="M243.557 121.416C244.096 126.147 246.234 130.219 249.314 133.153C251.602 129.396 252.694 124.89 252.141 120.189C251.587 115.473 249.479 111.341 246.413 108.317C244.126 112.09 243.004 116.701 243.542 121.431" fill="white"></path><path d="M253.879 103.288C255.135 108.483 258.051 112.69 261.879 115.534C263.897 110.983 264.496 105.728 263.254 100.518C262.013 95.3086 259.127 91.0269 255.314 88.1675C253.266 92.7935 252.638 98.1081 253.894 103.288" fill="white"></path><path d="M19.7674 182.479C21.0086 187.689 23.8946 191.986 27.7226 194.83C29.7712 190.204 30.3993 184.89 29.1432 179.71C27.8871 174.515 24.9712 170.308 21.1581 167.464C19.1394 172.015 18.5413 177.27 19.7824 182.479" fill="white"></path><path d="M237.819 66.0959C240.72 70.4374 244.892 73.2668 249.483 74.4944C249.947 69.4493 248.84 64.2545 245.969 59.8681C243.083 55.4817 238.911 52.6522 234.275 51.5294C233.797 56.6045 234.933 61.7544 237.834 66.0959" fill="white"></path><path d="M37.065 223.11C39.951 227.496 44.1229 230.326 48.7734 231.448C49.2519 226.373 48.1155 221.223 45.2145 216.882C42.3136 212.54 38.1416 209.696 33.5509 208.483C33.0874 213.529 34.1939 218.723 37.065 223.11Z" fill="white"></path><path d="M201.464 26.6652C202.721 31.381 205.592 35.5428 209.883 38.3274C214.19 41.0969 219.199 42.0401 224.074 41.3365C222.848 36.5459 220.037 32.2792 215.745 29.4947C212.5 27.3838 208.807 26.3808 205.053 26.3808C203.857 26.3808 202.646 26.4856 201.45 26.6802" fill="white"></path><path d="M58.9297 241.659C60.1558 246.449 62.9671 250.716 67.2587 253.501C71.5503 256.3 76.6195 257.153 81.5391 256.315C80.2831 251.614 77.412 247.437 73.1204 244.653C69.726 242.467 65.8979 241.419 62.04 241.419C60.9932 241.419 59.9614 241.494 58.9297 241.644" fill="white"></path><path d="M160.564 17.3821C163.48 21.005 167.772 23.5949 172.961 24.4033C178.164 25.2118 183.413 24.1189 187.959 21.6038C185.103 17.8462 180.841 15.2114 175.622 14.4179C174.546 14.2532 173.469 14.1784 172.392 14.1784C168.25 14.1784 164.168 15.3461 160.549 17.3821" fill="white"></path><path d="M95.0431 261.391C97.8992 265.148 102.161 267.783 107.38 268.577C112.598 269.37 117.892 268.187 122.453 265.612C119.537 261.99 115.245 259.4 110.041 258.591C108.905 258.412 107.768 258.322 106.632 258.322C102.58 258.322 98.587 259.43 95.0431 261.391Z" fill="white"></path><path d="M130.733 16.7331C125.32 17.8859 120.55 20.7303 117.006 24.5179C121.193 26.6886 126.322 27.4821 131.72 26.3593C137.119 25.2365 141.889 22.407 145.463 18.5596C142.606 17.0325 139.287 16.1942 135.728 16.1942C134.098 16.1942 132.438 16.3738 130.733 16.7331Z" fill="white"></path><path d="M151.28 257.258C145.881 258.38 141.111 261.21 137.537 265.057C141.695 267.288 146.853 268.037 152.267 266.884C157.68 265.731 162.45 262.887 165.979 259.099C163.078 257.587 159.713 256.749 156.124 256.749C154.539 256.749 152.91 256.913 151.265 257.258" fill="white"></path><path d="M87.4316 32.5182C82.5868 35.2278 79.0129 39.21 76.9643 43.6713C81.7942 44.33 87.0578 43.4168 91.9027 40.7071C96.7476 37.9974 100.366 33.9404 102.445 29.4043C101.548 29.2995 100.635 29.2396 99.7083 29.2396C95.6261 29.2396 91.3644 30.3025 87.4167 32.5182" fill="white"></path><path d="M191.114 242.287C186.269 244.997 182.65 249.054 180.557 253.59C185.431 254.174 190.74 253.186 195.585 250.476C200.43 247.766 204.003 243.784 206.052 239.323C205.05 239.188 204.048 239.113 203.032 239.113C199.084 239.113 194.972 240.131 191.114 242.287Z" fill="white"></path><path d="M51.614 60.2728C47.9505 64.1502 45.9617 68.821 45.5878 73.5368C50.4178 72.7434 55.1281 70.3331 58.8215 66.4257C62.5001 62.5184 64.5487 57.7427 64.9225 53.042C60.0178 53.9701 55.2926 56.4104 51.629 60.2878" fill="white"></path><path d="M224.205 216.569C220.526 220.476 218.493 225.252 218.119 229.952C223.024 229.024 227.749 226.584 231.412 222.707C235.076 218.829 237.065 214.158 237.439 209.443C232.609 210.236 227.898 212.646 224.205 216.554" fill="white"></path><path d="M27.2979 96.3833C25.1745 101.114 24.8904 106.159 26.1165 110.77C30.4081 108.555 34.0568 104.872 36.21 100.081C38.3633 95.2905 38.6624 90.2304 37.3764 85.7242C33.0399 88.0147 29.4212 91.6526 27.2979 96.3833Z" fill="white"></path><path d="M246.791 182.927C244.637 187.717 244.338 192.777 245.624 197.284C249.961 194.993 253.58 191.355 255.703 186.625C257.826 181.894 258.11 176.849 256.884 172.238C252.593 174.453 248.944 178.136 246.791 182.927Z" fill="white"></path><path d="M16.4914 138.316C16.0428 143.571 17.4035 148.556 20.0503 152.583C23.3849 149.02 25.6428 144.289 26.1064 139.005C26.5699 133.735 25.1793 128.81 22.4727 124.887C19.1531 128.42 16.94 133.061 16.4914 138.316Z" fill="white"></path><path d="M256.912 143.962C256.448 149.231 257.839 154.157 260.545 158.079C263.865 154.546 266.063 149.905 266.527 144.65C266.975 139.396 265.615 134.41 262.968 130.383C259.633 133.946 257.375 138.677 256.912 143.962Z" fill="white"></path><path d="M272.192 126.715C272.386 132.659 274.614 137.928 278.128 141.926C281.343 137.464 283.167 131.88 282.988 125.922C282.808 119.964 280.64 114.619 277.126 110.607C273.866 115.143 271.997 120.772 272.192 126.715Z" fill="white"></path><path d="M0.0120212 157.062C0.191462 163.02 2.3597 168.365 5.87374 172.377C9.13357 167.841 11.0027 162.212 10.8083 156.268C10.614 150.325 8.3859 145.055 4.87186 141.058C1.67184 145.519 -0.16742 151.089 0.0120212 157.062Z" fill="white"></path><path d="M263.071 82.4756C265.254 87.895 269.157 91.967 273.852 94.3773C275.497 89.0029 275.452 83.0894 273.299 77.6401C271.16 72.1908 267.242 68.1188 262.457 65.7833C260.798 71.1877 260.887 77.0562 263.071 82.4607" fill="white"></path><path d="M9.69914 205.34C11.8524 210.789 15.7552 214.861 20.5553 217.197C22.2151 211.792 22.1254 205.939 19.9422 200.519C17.759 195.1 13.8562 191.028 9.16082 188.603C7.51595 193.977 7.56081 199.891 9.69914 205.34Z" fill="white"></path><path d="M238.966 45.6325C243.018 49.6746 248.267 51.8903 253.71 52.2795C253.456 46.7853 251.362 41.4856 247.325 37.4286C243.288 33.3715 237.979 31.2457 232.431 30.9762C232.745 36.3956 234.929 41.6054 238.981 45.6475" fill="white"></path><path d="M35.6924 245.568C39.7298 249.625 45.0383 251.751 50.6009 252.021C50.2869 246.601 48.1037 241.392 44.0513 237.349C39.999 233.307 34.7504 231.092 29.3073 230.702C29.5615 236.197 31.655 241.496 35.6924 245.553" fill="white"></path><path d="M64.1183 260.747C66.3763 265.507 70.4137 269.4 75.9165 271.496C81.4044 273.591 87.4306 273.561 92.9633 271.855C90.6007 267.214 86.5334 263.381 81.0605 261.271C78.1146 260.133 75.0343 259.594 71.9539 259.594C69.3071 259.594 66.6753 259.998 64.1333 260.762" fill="white"></path><path d="M141.263 7.84863C145.316 11.2021 150.729 13.283 156.845 13.3578C162.961 13.4327 168.777 11.4715 173.518 8.16302C169.495 4.73473 164.067 2.69872 157.921 2.65381C157.862 2.65381 157.802 2.65381 157.742 2.65381C151.656 2.65381 145.914 4.6 141.263 7.84863Z" fill="white"></path><path fill-rule="evenodd" clip-rule="evenodd" d="M141.263 7.84863C145.316 11.2021 150.729 13.283 156.845 13.3578C162.961 13.4327 168.777 11.4715 173.518 8.16302C169.495 4.73473 164.067 2.69872 157.921 2.65381L157.742 2.65381C151.656 2.65381 145.914 4.6 141.263 7.84863Z" fill="white"></path><path d="M110.107 274.851C114.129 278.265 119.572 280.301 125.703 280.346C131.849 280.39 137.666 278.429 142.361 275.151C138.309 271.797 132.896 269.716 126.78 269.641C126.675 269.641 126.571 269.641 126.451 269.641C120.455 269.641 114.758 271.588 110.092 274.851" fill="white"></path><path d="M107.17 10.1976C101.293 11.9941 96.5233 15.4673 93.2934 19.8238C98.4074 21.6801 104.329 21.9496 110.191 20.1531C116.067 18.3566 120.912 14.8086 124.187 10.3773C121.465 9.43412 118.535 8.94009 115.499 8.94009C112.763 8.94008 109.951 9.34429 107.17 10.1976Z" fill="white"></path><path d="M172.818 262.843C166.941 264.639 162.096 268.187 158.822 272.618C163.995 274.415 169.977 274.595 175.854 272.798C181.73 271.002 186.5 267.528 189.73 263.172C186.979 262.169 183.973 261.63 180.878 261.63C178.231 261.63 175.525 262.019 172.818 262.843Z" fill="white"></path><path d="M62.0239 31.8144C57.179 35.1529 53.964 39.7639 52.4986 44.794C57.9267 45.0785 63.594 43.5964 68.4688 40.213C73.3436 36.8296 76.6333 32.1288 78.0987 27.1137C77.8445 27.1137 77.5754 27.1137 77.3062 27.1137C72.0127 27.1137 66.6295 28.6556 62.0239 31.8294" fill="white"></path><path d="M214.552 242.786C209.677 246.169 206.387 250.87 204.922 255.885C210.47 256.05 216.152 254.523 220.997 251.184C225.842 247.846 229.057 243.235 230.522 238.205C230.088 238.175 229.655 238.175 229.206 238.175C224.182 238.175 219.038 239.687 214.537 242.786" fill="white"></path><path d="M27.5148 65.277C24.1503 69.903 22.6998 75.3223 22.9989 80.622C28.1578 79.2447 32.9578 76.0858 36.3671 71.4C39.7765 66.7142 41.2419 61.2798 40.8531 56.085C35.6344 57.5372 30.8793 60.6361 27.5148 65.277Z" fill="white"></path><path d="M246.653 211.586C243.244 216.272 241.778 221.706 242.167 226.901C247.386 225.449 252.141 222.35 255.505 217.709C258.87 213.083 260.32 207.664 260.021 202.364C254.862 203.742 250.062 206.886 246.653 211.571" fill="white"></path><path d="M6.33634 108.298C4.66156 113.898 5.02044 119.646 7.00924 124.661C11.4354 121.592 14.9495 116.967 16.6392 111.353C18.3289 105.724 17.9102 100.05 15.8616 95.1393C11.4504 98.1933 8.02606 102.714 6.35128 108.298" fill="white"></path><path d="M266.378 171.642C264.688 177.271 265.107 182.945 267.156 187.855C271.567 184.801 274.991 180.28 276.666 174.681C278.341 169.082 277.982 163.333 276.008 158.318C271.582 161.387 268.068 166.013 266.378 171.627" fill="white"></path><path d="M190.048 11.1416C192.41 15.7825 196.49 19.615 201.946 21.7259C207.402 23.8367 213.365 23.8966 218.866 22.2499C216.609 17.4892 212.573 13.5968 207.088 11.5009C204.218 10.408 201.213 9.88408 198.194 9.88408C195.444 9.88408 192.694 10.3182 190.048 11.1266" fill="white"></path><path d="M382.712 142.023H383.534V140.955C383.534 135.876 379.651 134.229 374.565 134.229C366.905 134.229 358.164 140.01 358.164 140.01L351.083 125.597C351.083 125.597 361.575 117.681 376.559 117.681C393.66 117.681 403.924 127.015 403.924 142.481V179.924H385.285V176.264C385.285 174.251 385.513 172.481 385.513 172.481H385.285C385.285 172.481 380.808 181.343 368.062 181.343C356.748 181.343 347.428 173.778 347.428 161.729C347.428 144.006 373.255 142.008 382.696 142.008M373.742 165.755C379.042 165.755 383.762 159.975 383.762 155.003V153.706H381.874C375.387 153.706 367.956 155.597 367.956 160.676C367.956 163.513 369.722 165.755 373.727 165.755" fill="white"></path><path d="M409.832 119.099H431.289L440.73 151.464C441.902 155.353 442.968 161.972 442.968 161.972H443.197C443.197 161.972 444.263 155.475 445.435 151.464L454.755 119.099H476.333L455.699 179.939H430.816L409.832 119.099Z" fill="white"></path><path d="M514.571 142.023H515.393V140.955C515.393 135.876 511.51 134.229 506.424 134.229C498.764 134.229 490.023 140.01 490.023 140.01L482.942 125.597C482.942 125.597 493.434 117.681 508.419 117.681C525.52 117.681 535.783 127.015 535.783 142.481V179.924H517.144V176.264C517.144 174.251 517.373 172.481 517.373 172.481H517.144C517.144 172.481 512.667 181.343 499.921 181.343C488.607 181.343 479.287 173.778 479.287 161.729C479.287 144.006 505.114 142.008 514.555 142.008M505.601 165.755C510.901 165.755 515.621 159.975 515.621 155.003V153.706H513.733C507.246 153.706 499.815 155.597 499.815 160.676C499.815 163.513 501.581 165.755 505.586 165.755" fill="white"></path><path d="M549.963 119.099H569.546V124.407C569.546 126.42 569.303 128.189 569.303 128.189H569.546C572.379 123.461 578.15 117.681 588.886 117.681C601.144 117.681 610.708 123.354 610.708 140.483V179.94H590.302V144.265C590.302 138.591 588.064 136.227 583.587 136.227C577.221 136.227 573.323 139.766 571.556 144.967C570.734 147.331 570.384 150.046 570.384 153.005V179.94H549.978V119.099H549.963Z" fill="white"></path><path d="M628.034 136.104H620.253V120.151H628.628V102.672H648.44V120.151H661.171V136.104H648.44V154.773C648.44 161.621 655.399 162.567 659.282 162.567C660.942 162.567 661.993 162.445 661.993 162.445V180.167C661.993 180.167 659.754 180.518 656.45 180.518C646.78 180.518 628.019 177.925 628.019 157.488V136.104H628.034Z" fill="white"></path><path d="M673.922 119.099H694.327V179.939H673.922V119.099ZM674.165 95.4731H694.099V111.427H674.165V95.4731Z" fill="white"></path><path d="M708.591 119.1H728.996V154.775C728.996 160.449 731.235 162.813 735.484 162.813C744.209 162.813 748.336 155.141 748.336 146.036V119.1H768.741V179.941H749.158V174.618C749.158 172.605 749.402 170.836 749.402 170.836H749.158C745.854 177.333 738.316 181.344 730.169 181.344C718.139 181.344 708.591 175.67 708.591 158.542V119.085V119.1Z" fill="white"></path><path d="M783.852 119.1H803.435V124.407C803.435 126.421 803.207 128.19 803.207 128.19H803.435C806.268 123.935 811.932 117.681 821.48 117.681C829.14 117.681 835.277 121.113 838.46 127.961H838.703C841.886 122.882 849.089 117.681 858.165 117.681C869.251 117.681 877.854 123.706 877.854 140.483V179.94H857.449V143.915C857.449 139.431 856.627 136.243 852.728 136.243C846.241 136.243 842.815 140.971 841.52 147.697C841.048 149.817 841.048 152.303 841.048 154.789V179.955H820.643V143.93C820.643 139.446 819.82 136.258 815.922 136.258C809.557 136.258 806.252 140.742 804.836 147.24C804.364 149.482 804.242 152.197 804.242 154.805V179.971H783.837V119.13L783.852 119.1Z" fill="white"></path></svg> 