<svg version="1.1" id="Layer_1" xmlns="http://www.w3.org/2000/svg" xmlns:xlink="http://www.w3.org/1999/xlink" x="0px" y="0px"
	 viewBox="0 0 134.4 63.2" style="enable-background:new 0 0 134.4 63.2;" xml:space="preserve">
<g>
	<path style="fill:#FFFFFF;" d="M5.7,25c1.1,1.6,3,2.6,5.1,2.6c3.2,0,5.6-2.5,5.6-5.8c0-3.1-2.1-5.8-5.5-5.8c-2.2,0-4.1,1.1-5.3,2.6
		V25z M0,32.5V1.3h5.7v11.4c1.7-1.3,3.7-2,6-2c5.8,0,10.4,4.8,10.4,11.1c0,2.9-1.1,5.5-2.7,7.5c-1.9,2.2-4.9,3.6-8,3.6
		c-2.1,0-4.2-0.7-5.9-2.1v1.7H0z"/>
	<path style="fill:#F58429;" d="M27.2,0c2.1,0,3.7,1.6,3.7,3.6c0,2.1-1.7,3.6-3.7,3.6s-3.7-1.6-3.7-3.6C23.5,1.6,25.1,0,27.2,0z"/>
	<path style="fill:#FFFFFF;" d="M30,32.5h-5.7V11.2H30V32.5z"/>
	<path style="fill:#FFFFFF;" d="M43.5,27.6c3.3,0,5.6-2.6,5.6-5.8c0-3.2-2.3-5.8-5.6-5.8c-3.3,0-5.6,2.6-5.6,5.8
		C37.9,25,40.2,27.6,43.5,27.6z M43.5,10.8c6.4,0,11.3,5,11.3,11.1s-4.9,11-11.3,11c-6.4,0-11.3-4.9-11.3-11S37.1,10.8,43.5,10.8z"
		/>
	<path style="fill:#FFFFFF;" d="M57.6,43l5.9-12.7L54,11.2h6.3l6.2,12.8l5.7-12.8h6L63.6,43H57.6z"/>
	<path style="fill:#FFFFFF;" d="M99.5,11.2v21.3H94v-1.7c-1.7,1.5-3.7,2.1-5.7,2.1c-2.9,0-5.6-1.4-7.2-3.4c-1.4-1.7-2.1-3.9-2.1-7
		V11.2h5.7v11.5c0,1.9,0.4,2.9,1.1,3.6c0.9,1,2.1,1.3,3.2,1.3c2.4,0,4.2-1.6,5-2.6V11.2H99.5z"/>
	<path style="fill:#FFFFFF;" d="M105.3,58.2c0,0-2.3-16.9,12.8-19.4C118.1,38.8,120.8,55.6,105.3,58.2z M113,27.6
		c-3.2,0-5.6-2.5-5.6-5.8c0-3.1,2.1-5.8,5.5-5.8c2.2,0,4.1,1.1,5.3,2.6V25C117,26.6,115.1,27.6,113,27.6z M123.9,11.2h-5.5v1.7
		c-1.7-1.4-3.8-2.1-6.2-2.1c-5.8,0-10.4,4.8-10.4,11.1c0,2.9,1,5.5,2.7,7.5c1.9,2.2,4.9,3.6,8.1,3.6c2.1,0,4-0.6,5.7-1.9v3l-0.1,0
		c-22.2,0.6-17.5,28.8-17.5,28.8c0.1,0.8,5.9,0.1,6.4,0c5.3-1,10.6-3.9,13.5-8.6c2.6-4.1,3.3-9.1,3.4-13.9
		C124,37.6,123.9,11.2,123.9,11.2z"/>
	<path style="fill:#FFFFFF;" d="M124.9,35.3c0,0,0.9-9.6,9.5-9.1C134.4,26.2,133.8,35.8,124.9,35.3z"/>
	<path style="fill:#F58429;" d="M81.6,6.1c0.7,0,1-0.4,1-1c0-0.6-0.4-1-1-1h-1.4v2.1H81.6z M81.4,2.9c0.6,0,0.9-0.4,0.9-0.9
		S82,1.1,81.4,1.1h-1.2v1.8H81.4z M78.9,0h2.6c1.3,0,2.2,0.7,2.2,1.9c0,0.7-0.3,1.2-0.9,1.5v0c0.8,0.2,1.2,1,1.2,1.7
		c0,1.4-1.2,2.1-2.5,2.1h-2.6V0z"/>
	<path style="fill:#F58429;" d="M86.4,6.3c0.7,0,1.2-0.7,1.2-1.4V4.8h-0.2c-0.7,0-1.7,0.1-1.7,0.8C85.6,6,85.8,6.3,86.4,6.3z
		 M87.3,4h0.2V3.9c0-0.7-0.4-0.9-1-0.9c-0.7,0-1.4,0.5-1.4,0.5l-0.5-0.9c0,0,0.8-0.6,2-0.6c1.4,0,2.1,0.7,2.1,2.1v3.2h-1.2V6.8
		c0-0.2,0-0.4,0-0.4h0c0,0-0.4,0.9-1.6,0.9c-0.9,0-1.8-0.6-1.8-1.6C84.3,4.1,86.5,4,87.3,4z"/>
	<path style="fill:#F58429;" d="M89.6,0h1.3v5.4c0,0.6,0.2,0.7,0.5,0.7c0.1,0,0.2,0,0.2,0v1.1c0,0-0.2,0-0.4,0
		c-0.7,0-1.6-0.2-1.6-1.7V0z"/>
	<path style="fill:#F58429;" d="M92.1,2h1.2v0.9c0,0.2,0,0.4,0,0.4h0C93.6,2.5,94.2,2,95,2c0.1,0,0.2,0,0.2,0v1.3c0,0-0.1,0-0.3,0
		c-0.5,0-1.2,0.3-1.4,1.1c-0.1,0.3-0.1,0.5-0.1,0.8v2h-1.3V2z"/>
	<path style="fill:#F58429;" d="M97.3,6.3c0.7,0,1.2-0.7,1.2-1.4V4.8h-0.2c-0.7,0-1.7,0.1-1.7,0.8C96.5,6,96.8,6.3,97.3,6.3z
		 M98.3,4h0.2V3.9c0-0.7-0.4-0.9-1-0.9C96.7,3,96,3.5,96,3.5l-0.5-0.9c0,0,0.8-0.6,2-0.6c1.4,0,2.1,0.7,2.1,2.1v3.2h-1.2V6.8
		c0-0.2,0-0.4,0-0.4h0c0,0-0.4,0.9-1.6,0.9c-0.9,0-1.8-0.6-1.8-1.6C95.2,4.1,97.4,4,98.3,4z"/>
	<path style="fill:#F58429;" d="M100.6,2h1.2v0.6c0,0.2,0,0.4,0,0.4h0c0.3-0.5,0.9-1.1,1.7-1.1c0.8,0,1.3,0.4,1.5,1.1h0
		c0.3-0.6,1-1.1,1.8-1.1c1.1,0,1.7,0.6,1.7,2v3.3h-1.3V4.1c0-0.6-0.1-1-0.7-1c-0.7,0-1.1,0.5-1.2,1.2c-0.1,0.2-0.1,0.4-0.1,0.7v2.3
		h-1.3V4.1c0-0.6-0.1-1-0.7-1c-0.7,0-1.1,0.5-1.3,1.2c0,0.2-0.1,0.4-0.1,0.7v2.3h-1.3V2z"/>
	<path style="fill:#F58429;" d="M112,6.2c0.7,0,1.3-0.6,1.3-1.6c0-1-0.5-1.6-1.3-1.6c-0.7,0-1.3,0.5-1.3,1.6
		C110.7,5.4,111.1,6.2,112,6.2z M109.4,2h1.2v0.4c0,0.2,0,0.4,0,0.4h0c0,0,0.4-0.9,1.7-0.9c1.4,0,2.3,1.1,2.3,2.7
		c0,1.6-1,2.7-2.4,2.7c-1,0-1.5-0.7-1.5-0.7h0c0,0,0,0.2,0,0.4v2.2h-1.3V2z"/>
	<path style="fill:#F58429;" d="M115.1,2h1.3v3.1c0,0.6,0.2,1.1,0.8,1.1c0.9,0,1.4-0.8,1.4-1.7V2h1.3v5.2h-1.2V6.6
		c0-0.2,0-0.4,0-0.4h0c-0.3,0.5-0.9,1.1-1.8,1.1c-1.1,0-1.8-0.6-1.8-2V2z"/>
	<path style="fill:#F58429;" d="M120.9,2h1.2v0.9c0,0.2,0,0.4,0,0.4h0c0.2-0.7,0.9-1.3,1.6-1.3c0.1,0,0.2,0,0.2,0v1.3
		c0,0-0.1,0-0.3,0c-0.5,0-1.2,0.3-1.4,1.1c-0.1,0.3-0.1,0.5-0.1,0.8v2h-1.3V2z"/>
	<path style="fill:#FFFFFF;" d="M129.2,14h0.3c0.4,0,0.7-0.1,0.7-0.4c0-0.3-0.2-0.4-0.6-0.4c-0.2,0-0.3,0-0.4,0V14z M129.1,15.6
		h-0.7v-2.9c0.3-0.1,0.6-0.1,1.1-0.1c0.6,0,0.8,0.1,1,0.2c0.2,0.1,0.3,0.4,0.3,0.6c0,0.3-0.2,0.6-0.6,0.7v0c0.3,0.1,0.4,0.3,0.5,0.7
		c0.1,0.4,0.1,0.6,0.2,0.7h-0.7c-0.1-0.1-0.1-0.4-0.2-0.7c-0.1-0.3-0.2-0.5-0.6-0.5h-0.3V15.6z M127.4,14.1c0,1.3,1,2.3,2.3,2.3
		c1.3,0,2.2-1,2.2-2.3c0-1.3-0.9-2.3-2.2-2.3S127.4,12.8,127.4,14.1z M132.6,14.1c0,1.6-1.3,2.9-3,2.9c-1.7,0-3-1.3-3-2.9
		c0-1.6,1.3-2.9,3-2.9C131.3,11.2,132.6,12.5,132.6,14.1z"/>
	<path style="fill:#FFFFFF;" d="M124.9,36.9c0,0,6-3.4,9.3,1.9C134.1,38.7,128.2,42.3,124.9,36.9z"/>
</g>
</svg>
