<svg xmlns="http://www.w3.org/2000/svg" id="Layer_1" data-name="Layer 1" viewBox="0 0 581.11 214.16"><path d="M127.18,192.32a11.33,11.33,0,0,0,.18,2.33h-3l-.2-1h-.06a4.08,4.08,0,0,1-3.08,1.19c-2.17,0-3.46-1.43-3.46-3,0-2.51,2.5-3.69,6.3-3.69v-.12c0-.51-.31-1.24-2-1.24a6.72,6.72,0,0,0-3,.71l-.62-1.92a9.56,9.56,0,0,1,4.17-.87c3.58,0,4.7,1.9,4.7,4.17ZM124,190.09c-1.76,0-3.12.37-3.12,1.52,0,.77.57,1.14,1.32,1.14a1.84,1.84,0,0,0,1.73-1.1,2.18,2.18,0,0,0,.07-.52Z" fill="#808285"></path><path d="M133.83,188.07c0-1.21,0-2.21-.08-3.08h2.83l.13,1.32h.07a3.8,3.8,0,0,1,3.24-1.54,3.08,3.08,0,0,1,2.95,1.66h0a4.64,4.64,0,0,1,1.41-1.19,4.51,4.51,0,0,1,2-.47c2.06,0,3.62,1.3,3.62,4.19v5.69h-3.25v-5.24c0-1.4-.5-2.21-1.58-2.21a1.64,1.64,0,0,0-1.56,1.05,3.09,3.09,0,0,0-.11.75v5.65h-3.25v-5.41c0-1.21-.48-2-1.56-2a1.69,1.69,0,0,0-1.56,1.07,2,2,0,0,0-.13.77v5.61h-3.25Z" fill="#808285"></path><path d="M155.06,190.76c.11,1.26,1.47,1.85,3,1.85a9.63,9.63,0,0,0,3-.41l.44,2a11,11,0,0,1-3.88.62c-3.65,0-5.73-1.9-5.73-4.94a5.09,5.09,0,0,1,5.42-5.16c3.47,0,4.79,2.43,4.79,4.82a7.34,7.34,0,0,1-.11,1.21ZM159,188.7a1.8,1.8,0,0,0-1.86-1.95A2.09,2.09,0,0,0,155,188.7Z" fill="#808285"></path><path d="M163.86,188.07c0-1.21,0-2.21-.08-3.08h2.83l.13,1.32h.07a3.81,3.81,0,0,1,3.25-1.54,3.07,3.07,0,0,1,2.94,1.66h0a4.64,4.64,0,0,1,1.41-1.19,4.51,4.51,0,0,1,2-.47c2.06,0,3.62,1.3,3.62,4.19v5.69h-3.25v-5.24c0-1.4-.5-2.21-1.58-2.21a1.64,1.64,0,0,0-1.56,1.05,3.09,3.09,0,0,0-.11.75v5.65h-3.25v-5.41c0-1.21-.48-2-1.56-2a1.67,1.67,0,0,0-1.55,1.07,1.82,1.82,0,0,0-.14.77v5.61h-3.25Z" fill="#808285"></path><path d="M182.52,180.62h3.34v5.51h0a4,4,0,0,1,3.25-1.36c2.57,0,4.44,1.92,4.42,4.88a4.85,4.85,0,0,1-4.9,5.22,3.68,3.68,0,0,1-3.23-1.56h0l-.13,1.34h-2.83c0-.63.08-1.8.08-2.89Zm3.34,9.92a1.7,1.7,0,0,0,.07.53,2,2,0,0,0,1.95,1.43c1.43,0,2.31-1,2.31-2.73,0-1.5-.75-2.69-2.31-2.69a2,2,0,0,0-1.95,1.48,2,2,0,0,0-.07.56Z" fill="#808285"></path><path d="M198.07,190.76c.11,1.26,1.47,1.85,3,1.85a9.63,9.63,0,0,0,3-.41l.44,2a11.07,11.07,0,0,1-3.89.62c-3.64,0-5.73-1.9-5.73-4.94a5.1,5.1,0,0,1,5.43-5.16c3.46,0,4.78,2.43,4.78,4.82a6.38,6.38,0,0,1-.11,1.21ZM202,188.7a1.81,1.81,0,0,0-1.87-1.95A2.09,2.09,0,0,0,198,188.7Z" fill="#808285"></path><path d="M206.89,188.17c0-1.42,0-2.35-.09-3.18h2.86l.13,1.8h.09a3.1,3.1,0,0,1,2.89-2,3.69,3.69,0,0,1,.71.06v2.83a6.09,6.09,0,0,0-.93-.08,2.1,2.1,0,0,0-2.28,1.52,3.26,3.26,0,0,0-.06.67v4.88h-3.34Z" fill="#808285"></path><path d="M224.15,194.87c-3.14,0-5.56-1.86-5.56-5s2.28-5.12,5.75-5.12c3.27,0,5.47,2,5.47,5,0,3.52-2.79,5.14-5.64,5.14Zm.06-2.16c1.32,0,2.13-1.16,2.13-2.9,0-1.42-.61-2.89-2.13-2.89s-2.19,1.47-2.19,2.91c0,1.64.76,2.88,2.17,2.88Z" fill="#808285"></path><path d="M232.05,194.65V187.2h-1.43V185h1.43v-.38a4.21,4.21,0,0,1,1.34-3.24,4.69,4.69,0,0,1,3-1,8,8,0,0,1,1.76.2l-.13,2.31a4,4,0,0,0-1.08-.14,1.51,1.51,0,0,0-1.56,1.72v.5h2.15v2.21h-2.13v7.45Z" fill="#808285"></path><path d="M289.52,161.56c-3.16,0-3.15,2.83-3.15,3.53v23.34c-3.91-2.87-24.76-22.21-27.09-24.19s-3.71-2.68-5.88-2.68-5.4,1.83-5.4,6.12v24.1c0,.7,0,3,3.15,3a2.6,2.6,0,0,0,2.85-3V168.41c3.9,2.86,23.15,21.11,26,23.58s4.73,2.89,7.25,2.88,5.4-1.83,5.4-5.9V165.09C292.67,164.39,292.66,161.56,289.52,161.56Z" fill="#0067b1"></path><path d="M383.7,161.56H309.19c-3.11,0-11.61,1.19-11.61,9.54s8.5,9.54,11.61,9.54h21.53a4.09,4.09,0,1,1,0,8.17H301.3c-3.45,0-3.72,2.27-3.72,3s.27,3,3.72,3H330c4.6,0,10.8-1.95,10.8-10s-7.7-10-10.8-10h-21.6c-1.34,0-4.84-.52-4.84-3.61s3.5-3.61,4.84-3.61h52.77v24.29c0,.7,0,3,3,3s3-2.27,3-3V167.49h16.5c3.45,0,3.72-2.27,3.72-3S387.15,161.56,383.7,161.56Z" fill="#0067b1"></path><path d="M422.51,161.56H393.86c-2.87,0-3.72,1.46-3.72,4.08v26.14c0,2.1.85,3,3.72,3h28.65c11.22,0,13.75-6.73,13.75-9.2V171.89C436.26,169.45,433.92,161.56,422.51,161.56Zm7.76,13.15v8.67c0,3.19-2.61,5.43-7.76,5.43H396.14V167.49h26.37C427.47,167.49,430.27,170.11,430.27,174.71Z" fill="#0067b1"></path><path d="M474.63,161.56H452.17c-5.5,0-11.48,4.09-11.48,10.4v19.82c0,.7,0,3,3.15,3a2.58,2.58,0,0,0,2.83-3v-2.95H480v2.95c0,.7,0,3,3.16,3a2.6,2.6,0,0,0,2.85-3V172C485.89,165.45,479.93,161.56,474.63,161.56Zm5.34,21.8h-33.3v-10c0-4.39,3.92-5.93,6.18-5.93h20.77c2.17,0,6.35,1.26,6.35,5.93Z" fill="#0067b1"></path><path d="M395.89,74.19H338c-7.59,0-19.42,8.73-19.42,18.6v25.55c0,6.73,7.82,17.2,17.63,17.2h59.64a1.68,1.68,0,0,0,1.69-1.7V126.9a1.71,1.71,0,0,0-1.69-1.69H338.62c-3,0-7.72-2.6-7.72-7.76v-7.4h59.22v0h3.5a1.67,1.67,0,0,0,1.69-1.68v-7a1.71,1.71,0,0,0-1.69-1.69H330.9V96c0-5.6,6.69-11.48,10.88-11.48h54.11a1.68,1.68,0,0,0,1.69-1.7V75.88A1.7,1.7,0,0,0,395.89,74.19Z" fill="#5c8727"></path><path d="M308.6,74.15H229.06s-1.86.3-1.86,1.69v8.28c0,1.59,1.86,1.68,1.86,1.68h33.1v48c0,.81,1,1.7,2.59,1.7h8.12c1.71,0,2.6-.81,2.6-1.7v-48H308.6s1.86,0,1.86-1.68V75.84C310.46,74.2,308.6,74.15,308.6,74.15Z" fill="#5c8727"></path><path d="M99.18,100.61c5-3.8,7-13.45,2.21-19.74-4.08-5.37-8.8-6.63-20-6.63H46.25c-5.77,0-16.48,3.18-16.48,14.54v32.46c0,9.55,9.63,14.29,16.48,14.29H92.77a18.37,18.37,0,0,0,18.58-18.62C111.35,106.63,105.7,103.14,99.18,100.61ZM85,98.23H41V93.29c0-6.31,6.18-7.88,8.68-7.88H82.86c4.86,0,9,2.17,9,6.65S87.6,98.23,85,98.23Zm3.24,26.14H49.5c-5.22,0-8.5-2.05-8.5-8.72v-8.38H88.26c5.24,0,10,1.34,10,8.56C98.26,121.42,95.12,124.37,88.26,124.37Z" fill="#5c8727"></path><rect x="119.97" y="74.24" width="11.16" height="61.29" fill="#5c8727"></rect><path d="M199.48,74.24H162.15c-15.37,0-21.87,7.2-21.87,21.15V115.1c0,14.11,7.37,20.43,21.87,20.43h37.33c14.57,0,21.94-5.65,21.94-20.43V95.39C221.42,81.44,214.31,74.24,199.48,74.24ZM152.22,96.33c0-6.47,3.12-10.92,9.93-10.92h37.33c6.59,0,10,4.69,10,10.92v19.24c0,6-2.93,9.51-10,9.51H162.15c-7.17,0-9.93-3.61-9.93-9.51Z" fill="#5c8727"></path><path d="M484.23,74.19H431.57c-16.9,0-24.23,7.45-24.23,17.17v26.93c0,10.25,8.06,17.23,24.23,17.23h52.66a1.68,1.68,0,0,0,1.7-1.69v-7a1.72,1.72,0,0,0-1.7-1.7H431.57c-7.59,0-13.36-2-13.36-10V95.42c0-7.32,4.56-10.89,13.36-10.89h52.66a1.68,1.68,0,0,0,1.7-1.69v-7A1.71,1.71,0,0,0,484.23,74.19Z" fill="#5c8727"></path><path d="M469.84,29.63a8.78,8.78,0,0,0-.35,2.41,8.69,8.69,0,0,0,6.25,8.32l40.78,11.78V93.22a8.66,8.66,0,1,0,17.32,0V45.63a8.67,8.67,0,0,0-6.27-8.32l-47-13.59a8.66,8.66,0,0,0-10.72,5.91" fill="#7f9f52"></path><path d="M469.84,29.63a8.78,8.78,0,0,0-.35,2.41,8.69,8.69,0,0,0,6.25,8.32l40.78,11.78V93.22a8.66,8.66,0,0,0,8.65,8.66V52.15c0-3.86,0-6.93-6.78-8.67Z" fill="#5c8727"></path><path d="M511.19,12.81a5.67,5.67,0,0,0-.21,1.47,5.26,5.26,0,0,0,3.82,5s28.2,8.17,34.38,9.94V64a5.27,5.27,0,1,0,10.54,0V25.32a5.27,5.27,0,0,0-3.8-5.07l-38.19-11a5.28,5.28,0,0,0-6.54,3.6" fill="#a3ba82"></path><path d="M511.19,12.81a5.67,5.67,0,0,0-.21,1.47,5.26,5.26,0,0,0,3.82,5s28.2,8.17,34.38,9.94V64a5.27,5.27,0,0,0,5.28,5.27V28.88c0-2.35,0-3.85-4.47-5.05Z" fill="#7f9f52"></path></svg>