<svg width="143" height="24" fill="none" xmlns="http://www.w3.org/2000/svg"><path d="M47.806 20.263c0-2.04-1.69-2.798-3.297-3.05 1.626-.398 2.809-1.336 2.79-2.889-.017-1.913-1.498-3.15-5.012-3.15h-7.55v12.501h7.893c3.514-.009 5.176-1.444 5.176-3.412zm-9.068-6.796h2.276c1.472 0 2.122.397 2.122 1.363 0 .956-.587 1.399-2.122 1.399h-2.276v-2.762zm0 7.897v-2.906h2.781c1.157 0 2.14.28 2.14 1.435 0 1.092-.812 1.471-2.14 1.471h-2.781zm18.108 2.627c4.94 0 7.669-2.491 7.669-6.58 0-3.9-2.231-6.58-7.669-6.58-4.958 0-7.668 2.473-7.668 6.58 0 3.9 2.105 6.58 7.668 6.58zm0-10.596c2.575 0 3.487 1.678 3.487 4.016 0 2.32-.93 4.017-3.487 4.017-2.61 0-3.486-1.715-3.486-4.017 0-2.32 1.039-4.017 3.486-4.017zm13.62 5.56h2.213c1.626 0 2.05.28 2.25 1.11.071.343.207 1.588.379 2.6.072.396.135.757.225 1.001h4.245a8.395 8.395 0 01-.28-1.11c-.135-.695-.397-2.284-.514-2.907-.28-1.38-1.04-1.814-2.8-2.04 1.662-.243 3.107-1.209 3.107-3.032 0-2.284-1.816-3.412-4.923-3.412h-7.957v12.501h4.055v-4.712zm0-5.37h2.665c1.364 0 2.122.378 2.122 1.452 0 .966-.569 1.544-2.122 1.544h-2.665v-2.997zm22.48 7.5H85.83V18.63h6.593v-2.546H85.83v-2.338h6.99v-2.58H81.783v12.5h11.173v-2.581h-.01zm5.835.207h6.738l1.057 2.374h4.353l-6.16-12.5h-4.75l-6.268 12.5h3.947l1.083-2.374zm3.414-7.5l2.24 5.072h-4.552l2.312-5.072zm20.322 7.202h-6.702v-9.838h-4.073v12.501h10.775v-2.663zm5.428-9.829h-4.073v12.501h4.073v-12.5zm10.865 5.09l-2.194-.505c-1.346-.316-2.249-.523-2.249-1.335 0-.632.605-1.192 1.969-1.192 1.156 0 2.213.47 2.276 1.345h3.938c-.055-1.86-1.996-3.737-6.115-3.737-3.45 0-6.205 1.192-6.205 4.089 0 2.301 1.987 2.996 4.01 3.466l2.276.523c1.346.316 2.276.569 2.276 1.436 0 .65-.433 1.263-2.348 1.263-1.291 0-2.42-.659-2.457-1.625h-4.091c.009.948 1.346 4.017 6.44 4.017 3.224 0 6.557-1.02 6.557-4.053.018-2.545-1.87-3.195-4.083-3.691zM5.6 23.667h17.982V11.454c-.75-.081-1.282-.1-1.87-.1-7.117 0-14.008 6.057-16.112 12.312z" fill="#002677"/><path d="M23.582 9.333V0c-.587 0-1.409.126-1.933.253C14.388 1.986 8.842 8.114 4.877 16.409H4.77c.144-.884.849-9.901 8.95-16.409H0v23.666h2.98c3.216-6.2 10.17-13.611 20.602-14.333z" fill="#005D9A"/></svg>