<svg width="74" height="90" viewBox="0 0 74 90" fill="none" xmlns="http://www.w3.org/2000/svg">
<g id="Group">
<g id="Group_2">
<path id="Vector" d="M0.354797 65.6001H1.6548V68.0001H3.1548V65.6001H4.4548V71.9001H3.1548V69.1001H1.6548V71.9001H0.354797V65.6001Z" fill="black"/>
<path id="Vector_2" d="M7.25477 65.5C9.15477 65.5 9.35477 66.8 9.35477 68.8C9.35477 70.7 9.15477 72.1 7.25477 72.1C5.35477 72.1 5.15477 70.8 5.15477 68.8C5.05477 66.9 5.35477 65.5 7.25477 65.5ZM7.25477 71.1C7.95477 71.1 8.15477 70.5 8.15477 68.8C8.15477 67.1 8.05477 66.5 7.25477 66.5C6.55477 66.5 6.35477 67.1 6.35477 68.8C6.35477 70.4 6.45477 71.1 7.25477 71.1Z" fill="black"/>
<path id="Vector_3" d="M10.1548 65.6001H12.0548L12.9548 70.0001L13.8548 65.6001H15.6548V71.9001H14.4548V66.9001L13.3548 71.9001H12.3548L11.2548 66.9001V71.9001H10.0548V65.6001H10.1548Z" fill="black"/>
<path id="Vector_4" d="M20.0548 65.6V66.6H17.8548V68.1H19.9548V69.1H17.8548V70.8H20.1548V71.8H16.5548V65.5H20.0548V65.6Z" fill="black"/>
<path id="Vector_5" d="M25.5548 67.7C25.5548 66.8 25.3548 66.4 24.7548 66.4C24.1548 66.4 23.9548 67 23.9548 68.8C23.9548 70.7 24.2548 71 24.7548 71C25.2548 71 25.5548 70.8 25.5548 69.4H26.8548C26.8548 70.8 26.5548 71.9 24.8548 71.9C22.9548 71.9 22.7548 70.6 22.7548 68.6C22.7548 66.7 22.9548 65.3 24.8548 65.3C26.6548 65.3 26.7548 66.6 26.7548 67.5H25.5548V67.7Z" fill="black"/>
<path id="Vector_6" d="M29.5548 65.5C31.4548 65.5 31.6548 66.8 31.6548 68.8C31.6548 70.7 31.4548 72.1 29.5548 72.1C27.6548 72.1 27.4548 70.8 27.4548 68.8C27.4548 66.9 27.6548 65.5 29.5548 65.5ZM29.5548 71.1C30.2548 71.1 30.4548 70.5 30.4548 68.8C30.4548 67.1 30.3548 66.5 29.5548 66.5C28.8548 66.5 28.6548 67.1 28.6548 68.8C28.7548 70.4 28.8548 71.1 29.5548 71.1Z" fill="black"/>
<path id="Vector_7" d="M32.4548 65.6001H34.3548L35.2548 70.0001L36.1548 65.6001H38.0548V71.9001H36.8548V66.9001L35.7548 71.9001H34.7548L33.6548 66.9001V71.9001H32.4548V65.6001Z" fill="black"/>
<path id="Vector_8" d="M38.9548 65.6001H41.1548C42.4548 65.6001 42.8548 66.5001 42.8548 67.5001C42.8548 68.8001 42.0548 69.4001 40.8548 69.4001H40.1548V71.9001H38.8548V65.6001H38.9548ZM40.2548 68.5001H40.8548C41.3548 68.5001 41.6548 68.2001 41.6548 67.6001C41.6548 67.0001 41.4548 66.6001 40.7548 66.6001H40.2548V68.5001Z" fill="black"/>
<path id="Vector_9" d="M45.4548 65.5C47.3548 65.5 47.5548 66.8 47.5548 68.8C47.5548 70.7 47.3548 72.1 45.4548 72.1C43.5548 72.1 43.3548 70.8 43.3548 68.8C43.3548 66.9 43.5548 65.5 45.4548 65.5ZM45.4548 71.1C46.1548 71.1 46.3548 70.5 46.3548 68.8C46.3548 67.1 46.2548 66.5 45.4548 66.5C44.7548 66.5 44.5548 67.1 44.5548 68.8C44.6548 70.4 44.7548 71.1 45.4548 71.1Z" fill="black"/>
<path id="Vector_10" d="M49.3548 69.9V70.1C49.3548 70.7 49.5548 71.1 50.1548 71.1C50.5548 71.1 50.9548 70.9 50.9548 70.3C50.9548 69.7 50.6548 69.5 49.8548 69.2C48.7548 68.8 48.2548 68.4 48.2548 67.3C48.2548 66.1 48.9548 65.5 50.1548 65.5C51.2548 65.5 52.0548 66 52.0548 67.2V67.4H50.8548C50.8548 66.8 50.6548 66.5 50.1548 66.5C49.5548 66.5 49.4548 66.9 49.4548 67.2C49.4548 67.6 49.5548 67.8 50.0548 68L51.0548 68.4C51.9548 68.8 52.2548 69.3 52.2548 70.1C52.2548 71.4 51.4548 72 50.0548 72C48.6548 72 48.0548 71.3 48.0548 70.2V69.9H49.3548Z" fill="black"/>
<path id="Vector_11" d="M56.5548 65.6001V66.6001H55.1548V71.8001H53.8548V66.6001H52.4548V65.6001H56.5548Z" fill="black"/>
<path id="Vector_12" d="M57.8548 65.6001H59.4548L61.1548 71.9001H59.8548L59.5548 70.6001H57.8548L57.5548 71.9001H56.2548L57.8548 65.6001ZM58.0548 69.5001H59.2548L58.6548 66.7001L58.0548 69.5001Z" fill="black"/>
<path id="Vector_13" d="M61.4548 65.6001H63.5548C64.5548 65.6001 65.3548 66.0001 65.3548 67.2001C65.3548 67.9001 65.0548 68.4001 64.4548 68.6001C65.1548 68.7001 65.5548 69.2001 65.5548 70.1001C65.5548 71.1001 65.0548 71.9001 63.5548 71.9001H61.4548V65.6001ZM62.7548 68.2001H63.1548C63.8548 68.2001 64.1548 68.0001 64.1548 67.4001C64.1548 66.8001 63.8548 66.6001 63.2548 66.6001H62.7548V68.2001ZM62.7548 71.0001H63.2548C63.8548 71.0001 64.2548 70.8001 64.2548 70.1001C64.2548 69.4001 63.8548 69.2001 63.2548 69.2001H62.7548V71.0001Z" fill="black"/>
<path id="Vector_14" d="M66.3548 71.9001V65.6001H67.6548V70.8001H69.8548V71.8001H66.3548V71.9001Z" fill="black"/>
<path id="Vector_15" d="M73.9548 65.6V66.6H71.6548V68.1H73.7548V69.1H71.6548V70.8H73.9548V71.8H70.3548V65.5H73.9548V65.6Z" fill="black"/>
<path id="Vector_16" d="M24.5548 74.4001H26.1548L27.8548 80.7001H26.5548L26.2548 79.4001H24.5548L24.2548 80.7001H22.9548L24.5548 74.4001ZM24.7548 78.3001H25.9548L25.3548 75.5001L24.7548 78.3001Z" fill="black"/>
<path id="Vector_17" d="M29.2548 78.7V78.9C29.2548 79.5 29.4548 79.9 30.0548 79.9C30.4548 79.9 30.8548 79.7 30.8548 79.1C30.8548 78.5 30.5548 78.3 29.7548 78C28.6548 77.6 28.1548 77.1 28.1548 76.1C28.1548 74.9 28.8548 74.3 30.0548 74.3C31.1548 74.3 31.9548 74.8 31.9548 76V76.2H30.7548C30.7548 75.6 30.5548 75.3 30.0548 75.3C29.4548 75.3 29.3548 75.7 29.3548 76C29.3548 76.4 29.4548 76.6 29.9548 76.9L30.9548 77.3C31.8548 77.7 32.1548 78.2 32.1548 79C32.1548 80.3 31.3548 80.9 29.9548 80.9C28.5548 80.9 27.9548 80.2 27.9548 79.1V78.8H29.2548V78.7Z" fill="black"/>
<path id="Vector_18" d="M38.1548 75.5H35.8548L35.7548 76.9C35.9548 76.6 36.3548 76.4 36.8548 76.4C38.0548 76.4 38.3548 77.4 38.3548 78.4C38.3548 79.8 37.9548 80.7 36.3548 80.7C34.7548 80.7 34.5548 79.7 34.5548 79V78.8H35.7548C35.7548 79.2 35.8548 79.8 36.3548 79.8C36.8548 79.8 37.0548 79.4 37.0548 78.6C37.0548 77.6 36.8548 77.3 36.3548 77.3C35.9548 77.3 35.7548 77.5 35.7548 77.9H34.6548L34.8548 74.5H38.0548V75.5H38.1548Z" fill="black"/>
<path id="Vector_19" d="M39.7548 77.4C39.0548 77.2 38.8548 76.6 38.8548 76.2C38.8548 75 39.5548 74.5 40.6548 74.5C41.7548 74.5 42.4548 75 42.4548 76.2C42.4548 76.6 42.2548 77.2 41.5548 77.4C42.2548 77.5 42.6548 78.2 42.6548 78.9C42.6548 79.6 42.3548 80.8 40.6548 80.8C38.9548 80.8 38.6548 79.6 38.6548 78.9C38.7548 78.1 39.0548 77.5 39.7548 77.4ZM40.7548 79.9C41.3548 79.9 41.4548 79.4 41.4548 78.8C41.4548 78.2 41.3548 77.7 40.7548 77.7C40.1548 77.7 40.0548 78.2 40.0548 78.8C39.9548 79.5 40.1548 79.9 40.7548 79.9ZM40.7548 77C41.1548 77 41.3548 76.7 41.3548 76.1C41.3548 75.5 41.1548 75.2 40.7548 75.2C40.3548 75.2 40.1548 75.5 40.1548 76.1C40.0548 76.7 40.3548 77 40.7548 77Z" fill="black"/>
<path id="Vector_20" d="M44.4548 80.6001V76.2001H43.2548V75.4001H43.3548C44.1548 75.4001 44.6548 75.1001 44.8548 74.4001H45.6548V80.6001H44.4548Z" fill="black"/>
<path id="Vector_21" d="M49.1548 74.4001C50.6548 74.4001 51.0548 75.2001 51.0548 77.4001C51.0548 79.1001 50.9548 80.7001 49.1548 80.7001C47.6548 80.7001 47.2548 79.9001 47.2548 77.7001C47.1548 76.0001 47.2548 74.4001 49.1548 74.4001ZM48.4548 78.0001C48.4548 79.6001 48.5548 79.9001 49.1548 79.9001C49.7548 79.9001 49.8548 79.4001 49.8548 77.8001V77.1001C49.8548 75.5001 49.7548 75.2001 49.1548 75.2001C48.5548 75.2001 48.4548 75.7001 48.4548 77.3001V78.0001Z" fill="black"/>
<path id="Vector_22" d="M17.5548 83.1001H19.1548L20.8548 89.4001H19.5548L19.2548 88.1001H17.5548L17.2548 89.4001H15.9548L17.5548 83.1001ZM17.7548 87.0001H18.9548L18.3548 84.2001L17.7548 87.0001Z" fill="black"/>
<path id="Vector_23" d="M21.2548 83.1001H23.3548C24.3548 83.1001 25.1548 83.5001 25.1548 84.7001C25.1548 85.4001 24.8548 85.9001 24.2548 86.1001C24.9548 86.2001 25.3548 86.7001 25.3548 87.6001C25.3548 88.6001 24.8548 89.4001 23.3548 89.4001H21.2548V83.1001ZM22.4548 85.7001H22.8548C23.5548 85.7001 23.8548 85.5001 23.8548 84.9001C23.8548 84.3001 23.5548 84.1001 22.9548 84.1001H22.4548V85.7001ZM22.4548 88.5001H22.9548C23.5548 88.5001 23.9548 88.3001 23.9548 87.6001C23.9548 86.9001 23.5548 86.7001 22.9548 86.7001H22.4548V88.5001Z" fill="black"/>
<path id="Vector_24" d="M27.3548 83.1001H28.9548L30.6548 89.4001H29.3548L29.0548 88.1001H27.3548L27.0548 89.4001H25.6548L27.3548 83.1001ZM27.4548 87.0001H28.6548L28.0548 84.2001L27.4548 87.0001Z" fill="black"/>
<path id="Vector_25" d="M30.9548 83.1001H33.1548C34.4548 83.1001 34.8548 84.0001 34.8548 85.0001C34.8548 86.3001 34.0548 86.9001 32.8548 86.9001H32.1548V89.4001H30.8548V83.1001H30.9548ZM32.2548 86.0001H32.8548C33.3548 86.0001 33.6548 85.7001 33.6548 85.1001C33.6548 84.5001 33.4548 84.1001 32.7548 84.1001H32.2548V86.0001Z" fill="black"/>
<path id="Vector_26" d="M41.1548 89.4H37.3548C37.3548 88.3 37.7548 87.5 38.7548 86.7L39.2548 86.2C39.8548 85.7 39.8548 85.4 39.8548 84.8C39.8548 84.3 39.6548 84 39.2548 84C38.6548 84 38.5548 84.6 38.5548 85.2H37.3548V85C37.3548 83.9 37.9548 83.2 39.2548 83.2C40.4548 83.2 41.1548 83.8 41.1548 84.9C41.1548 85.7 40.8548 86.2 40.1548 86.9L39.4548 87.5C39.0548 87.8 38.8548 88.2 38.8548 88.4H41.1548V89.4Z" fill="black"/>
<path id="Vector_27" d="M43.4548 83.2C44.9548 83.2 45.3548 84 45.3548 86.2C45.3548 87.9 45.2548 89.5 43.4548 89.5C41.9548 89.5 41.5548 88.7 41.5548 86.5C41.5548 84.8 41.6548 83.2 43.4548 83.2ZM42.7548 86.8C42.7548 88.4 42.8548 88.7 43.4548 88.7C44.0548 88.7 44.1548 88.2 44.1548 86.6V85.9C44.1548 84.3 44.0548 84 43.4548 84C42.8548 84 42.7548 84.5 42.7548 86.1V86.8Z" fill="black"/>
<path id="Vector_28" d="M47.6548 83.2C49.1548 83.2 49.5548 84 49.5548 86.2C49.5548 87.9 49.4548 89.5 47.6548 89.5C46.1548 89.5 45.7548 88.7 45.7548 86.5C45.7548 84.8 45.8548 83.2 47.6548 83.2ZM46.9548 86.8C46.9548 88.4 47.0548 88.7 47.6548 88.7C48.2548 88.7 48.3548 88.2 48.3548 86.6V85.9C48.3548 84.3 48.2548 84 47.6548 84C47.0548 84 46.9548 84.5 46.9548 86.1V86.8Z" fill="black"/>
<path id="Vector_29" d="M51.3548 89.4V85H50.1548V84.2H50.2548C51.0548 84.2 51.5548 83.9 51.7548 83.2H52.6548V89.4H51.3548Z" fill="black"/>
<path id="Vector_30" d="M55.1548 86.1C54.4548 85.9 54.2548 85.3 54.2548 84.9C54.2548 83.7 54.9548 83.2 56.0548 83.2C57.1548 83.2 57.8548 83.7 57.8548 84.9C57.8548 85.3 57.6548 85.9 56.9548 86.1C57.6548 86.2 58.0548 86.9 58.0548 87.6C58.0548 88.3 57.7548 89.5 56.0548 89.5C54.3548 89.5 54.0548 88.3 54.0548 87.6C54.1548 86.9 54.4548 86.2 55.1548 86.1ZM56.0548 88.7C56.6548 88.7 56.7548 88.2 56.7548 87.6C56.7548 87 56.6548 86.5 56.0548 86.5C55.4548 86.5 55.3548 87 55.3548 87.6C55.3548 88.2 55.5548 88.7 56.0548 88.7ZM56.0548 85.7C56.4548 85.7 56.6548 85.4 56.6548 84.8C56.6548 84.2 56.4548 83.9 56.0548 83.9C55.6548 83.9 55.4548 84.2 55.4548 84.8C55.4548 85.4 55.7548 85.7 56.0548 85.7Z" fill="black"/>
</g>
<g id="Group_3">
<g id="Group_4">
<path id="Vector_31" d="M45.2548 1.6C45.4548 1.7 45.5548 1.8 45.5548 2C45.5548 2.8 41.6548 3.6 35.8548 3.6C30.0548 3.6 26.1548 2.8 26.1548 2V1.9L26.3548 1.7C27.0548 1.2 29.3548 0.8 32.5548 0.6L35.8548 0.5C44.1548 0.5 45.2548 1.6 45.2548 1.6Z" fill="black"/>
<path id="Vector_32" d="M22.6548 3.39995C21.2548 4.39995 20.5548 5.29995 20.6548 6.09995C20.7548 6.59995 21.1548 6.99995 21.5548 7.29995L21.7548 7.39995C22.0548 7.49995 22.2548 7.59995 22.4548 7.69995C23.4548 8.09995 29.1548 9.89995 36.4548 9.89995C43.5548 9.89995 49.4548 8.59995 51.1548 7.79995C51.2548 7.69995 51.4548 7.59995 51.5548 7.59995L51.6548 7.49995C52.0548 7.19995 52.2548 6.79995 52.2548 6.39995C52.2548 5.59995 51.5548 4.69995 50.1548 3.69995C48.9548 2.89995 47.4548 2.19995 45.5548 1.69995C45.6548 1.79995 45.6548 1.89995 45.6548 1.99995C45.6548 3.09995 40.6548 3.69995 35.8548 3.69995C31.0548 3.69995 26.0548 3.09995 26.0548 1.99995C24.7548 2.29995 23.5548 2.79995 22.6548 3.39995Z" fill="black"/>
<path id="Vector_33" d="M36.4548 11.9C47.2548 11.9 52.2548 9.8 52.2548 8.4C52.2548 8.1 52.0548 7.9 51.6548 7.7C51.5548 7.8 51.3548 7.9 51.1548 8C49.4548 8.9 43.5548 10.1 36.4548 10.1C29.1548 10.1 23.4548 8.4 22.4548 7.9C22.2548 7.8 21.9548 7.7 21.6548 7.5C20.9548 7.7 20.6548 8 20.6548 8.3C20.6548 9.7 27.4548 11.9 36.4548 11.9Z" fill="black"/>
<path id="Vector_34" d="M16.0548 55.8001C19.2548 57.5001 25.3548 59.5 35.8548 59.5C46.2548 59.5 53.1548 57.8001 57.0548 56.4001C58.1548 56.0001 58.7548 54.9001 58.5548 53.8001L54.0548 21.8L50.7548 24.6C50.7548 24.6 56.9548 32.9 51.1548 44C45.2548 55 36.2548 52.9001 36.2548 52.9001V53.1L15.1548 51.8001L21.2548 46.1C21.2548 46.1 14.2548 35.8 20.0548 24.8C25.8548 13.8 36.5548 15.2001 36.5548 15.2001C36.5548 15.2001 28.5548 17 26.3548 25.1C24.1548 33.2 29.7548 38 29.7548 38L36.2548 32.1V53C36.2548 53 44.1548 49.7001 45.5548 42.3001C46.9548 34.9001 42.2548 31.8 42.2548 31.8L36.8548 36.2001V15.2001L54.0548 21L52.3548 8.80005C51.6548 10.3 46.6548 12.1 36.5548 12.1C28.5548 12.1 21.6548 10.3 20.7548 8.80005L15.0548 53.6C14.7548 54.4 15.2548 55.4001 16.0548 55.8001Z" fill="black"/>
</g>
<g id="Group_5">
<path id="Vector_35" fill-rule="evenodd" clip-rule="evenodd" d="M57.8548 1.09997C58.8548 0.999971 59.7548 1.29997 60.2548 1.79997C61.0548 2.59997 61.6548 4.29997 60.7548 5.69997C60.0548 6.79997 58.1548 7.59997 56.6548 6.69997C55.5548 6.09997 54.7548 4.29997 55.5548 2.69997C55.8548 2.09997 56.6548 1.29997 57.8548 1.09997ZM55.9548 2.79997C55.1548 4.29997 55.9548 5.89997 57.0548 6.49997C58.4548 7.19997 59.9548 6.39997 60.5548 5.29997C60.6548 5.09997 60.8548 4.59997 60.8548 4.19997C60.8548 3.19997 60.4548 2.59997 60.0548 2.29997C59.5548 1.79997 58.9548 1.39997 57.9548 1.59997C56.8548 1.69997 56.1548 2.39997 55.9548 2.79997Z" fill="black"/>
<path id="Vector_36" fill-rule="evenodd" clip-rule="evenodd" d="M57.0547 2.40002C57.8547 2.50002 58.8547 2.20003 59.3547 2.70003C59.7547 3.10003 59.6547 4.20003 58.8547 4.20003C59.4547 4.30003 59.5547 5.00003 59.5547 5.70003C59.3547 5.70003 59.1547 5.70003 59.0547 5.70003C59.2547 4.60003 58.6547 4.30002 57.6547 4.40002C57.6547 4.80002 57.6547 5.30003 57.6547 5.70003C57.4547 5.70003 57.2547 5.70003 57.1547 5.70003C57.0547 4.60003 57.0547 3.50002 57.0547 2.40002ZM57.5547 4.00002C58.4547 4.20002 59.3547 3.70003 58.8547 3.10003C58.6547 2.80003 58.0547 2.90002 57.5547 2.90002C57.6547 3.20002 57.5547 3.60002 57.5547 4.00002Z" fill="black"/>
</g>
</g>
</g>
</svg>
