<svg width="160" height="181" viewBox="0 0 160 181" fill="none" xmlns="http://www.w3.org/2000/svg">
<g clip-path="url(#clip0_2012_147)">
<path d="M77.9141 180.029C76.6016 179.561 75.2422 179.233 73.9766 178.623C67.8828 175.812 64.7422 169.11 66.2422 162.549C66.336 162.081 66.4297 161.659 66.5235 161.097C63.6172 159.41 60.7578 157.769 57.8985 156.082C47.4922 150.037 37.0391 144.039 26.6328 137.993C25.6016 137.384 25.0391 137.384 24.1016 138.228C19.6484 142.398 13.4609 143.242 8.16407 140.618C2.91407 138.04 -0.0859257 132.604 0.335949 126.653C0.757824 121.029 4.78907 116.062 10.5547 114.328C11.6328 114 11.8672 113.531 11.8672 112.5C11.8203 97.5039 11.8203 82.5078 11.8672 67.5117C11.8672 66.6213 11.7734 66.059 10.6953 65.731C4.7422 63.9502 0.757824 59.1233 0.382824 53.406C-0.0390507 47.3139 3.10157 41.8309 8.53907 39.3003C14.0234 36.7698 19.9297 37.8476 24.6641 42.3464C24.8516 42.487 24.9922 42.6276 25.3203 42.9088C39.0547 34.989 52.7891 27.0223 66.5703 19.0556C65.7266 16.1033 65.4922 13.1509 66.4297 10.2923C68.0703 5.13737 71.586 1.90383 76.7422 0.497949C77.1172 0.404224 77.4922 0.263635 77.8672 0.123047C79.2734 0.123047 80.6797 0.123047 82.0859 0.123047C83.0234 0.404224 83.9609 0.6854 84.8984 1.01344C91.6016 3.49717 95.3516 10.5266 93.7578 17.556C93.6641 18.0246 93.5703 18.4464 93.4766 19.0088C107.164 26.9286 120.898 34.8484 134.68 42.8619C135.289 42.3464 135.898 41.7841 136.508 41.2686C141.289 37.5196 146.539 36.8166 151.93 39.5815C157.367 42.3464 159.945 47.1264 159.664 53.2655C159.43 58.6547 155.586 63.7627 150.289 65.4498C148.461 66.0121 148.133 66.9025 148.133 68.6365C148.18 83.1639 148.18 97.6914 148.133 112.219C148.133 113.531 148.461 114.093 149.82 114.515C155.305 116.155 159.289 121.216 159.711 126.746C160.133 132.698 157.086 138.134 151.883 140.711C146.68 143.289 140.492 142.539 136.227 138.556C135.102 137.478 134.352 137.525 133.133 138.275C120.477 145.679 107.773 152.989 95.0703 160.347C94.5547 160.628 94.086 160.956 93.5235 161.284C94.3672 164.19 94.5547 167.095 93.6641 169.954C92.0703 175.015 88.6484 178.249 83.4922 179.701C83.0703 179.842 82.6016 179.982 82.1797 180.123C80.7266 180.029 79.3203 180.029 77.9141 180.029ZM25.7891 61.7476C23.1172 63.2472 20.9141 64.6531 18.5234 65.6841C17.4922 66.1527 17.1172 66.5276 17.1172 67.6055C17.1641 75.3378 17.1172 83.0702 17.1172 90.8026C17.1172 98.0194 17.1172 105.189 17.1172 112.406C17.1172 113.297 17.1641 113.859 18.2891 114.375C20.4453 115.312 22.3672 116.718 24.4766 117.889C24.9453 118.17 25.7891 118.311 26.2109 118.077C28.6484 116.811 30.9922 115.359 33.3828 114C35.3047 112.922 36.8047 113.156 37.6016 114.656C38.3984 116.108 37.8828 117.467 36.0547 118.545C33.8047 119.857 31.5078 121.217 29.2109 122.482C28.2266 122.997 28.0391 123.513 28.1797 124.684C28.4609 126.793 28.5078 128.996 28.2266 131.105C28.0391 132.417 28.2734 132.932 29.3516 133.588C41.8203 140.758 54.2422 147.928 66.711 155.145C67.5547 155.614 68.3985 156.129 69.2891 156.598C71.3516 154.395 73.6953 152.943 76.4609 152.099C76.8828 151.958 77.3516 151.115 77.3984 150.599C77.4922 147.788 77.4453 144.976 77.4453 142.164C77.4453 140.805 77.9141 139.727 79.2734 139.306C81.0547 138.743 82.6016 139.915 82.6485 141.977C82.7422 144.835 82.6484 147.694 82.6953 150.599C82.6953 151.115 83.0703 151.818 83.4453 152.052C85.9297 153.458 88.5078 154.723 91.4141 156.223C104.352 148.725 117.805 140.946 131.211 133.12C131.586 132.885 131.727 131.995 131.773 131.433C131.82 129.136 131.68 126.793 131.867 124.497C131.961 123.513 131.82 123.044 130.977 122.576C128.586 121.263 126.195 119.857 123.852 118.452C122.164 117.421 121.648 116.062 122.445 114.656C123.242 113.203 124.742 112.922 126.523 113.906C128.961 115.265 131.352 116.765 133.836 118.077C134.258 118.311 135.102 118.124 135.57 117.889C137.633 116.765 139.648 115.406 141.758 114.375C142.555 114 142.93 113.718 142.93 112.781C142.883 97.5977 142.93 82.461 142.883 67.2774C142.883 66.8557 142.602 66.1059 142.32 66.0121C139.367 65.2623 136.93 63.6221 134.773 61.4664C132.195 62.9661 129.711 64.4188 127.227 65.8247C124.836 67.1837 123.43 67.1368 122.492 65.5904C121.555 64.0439 122.164 62.6849 124.508 61.3259C126.57 60.1074 128.633 58.889 130.742 57.7643C131.727 57.2019 132.008 56.6864 131.82 55.4211C131.539 53.3123 131.539 51.1098 131.82 49.0009C131.961 47.7825 131.82 47.267 130.789 46.6578C121.508 41.3623 112.273 35.9731 102.992 30.6307C98.961 28.2876 94.9297 25.9444 91.3672 23.9293C88.6953 25.3821 86.4453 26.788 84.0078 27.8658C82.9297 28.3344 82.6016 28.8031 82.6485 29.8809C82.6953 32.6458 82.6953 35.3639 82.6485 38.1288C82.6485 39.6284 81.9922 40.7531 80.3985 40.9874C78.711 41.2217 77.4922 40.097 77.4453 38.1288C77.3985 35.2701 77.4453 32.4115 77.3984 29.506C77.3984 29.0374 76.9766 28.3344 76.5547 28.1001C74.1172 26.7411 71.586 25.4758 69.0547 24.1637C69.1953 23.7419 69.1485 23.7419 69.1016 23.7419C55.6484 31.4274 42.2422 39.1598 28.8359 46.939C28.4141 47.1733 28.2266 48.0168 28.1797 48.5792C28.1328 50.8755 28.3203 53.2186 28.1328 55.5149C28.0391 56.5927 28.2734 57.0613 29.1172 57.5768C31.4141 58.8421 33.6641 60.2012 35.9609 61.5133C37.8828 62.638 38.4453 64.0439 37.5547 65.4967C36.711 66.9025 35.2578 67.1368 33.4297 66.1059C30.7578 64.6062 28.0859 63.0598 25.7891 61.7476ZM88.8828 14.3225C88.8828 9.35502 84.9453 5.37168 80.0235 5.37168C75.1485 5.37168 71.211 9.26129 71.1641 14.1819C71.1172 19.1493 75.0078 23.1795 79.9297 23.2264C84.8047 23.2733 88.8828 19.2431 88.8828 14.3225ZM154.414 127.918C154.414 122.997 150.383 118.967 145.461 119.014C140.633 119.061 136.648 122.997 136.602 127.871C136.555 132.745 140.586 136.822 145.508 136.822C150.477 136.822 154.414 132.885 154.414 127.918ZM71.1641 165.924C71.211 170.891 75.1953 174.828 80.1641 174.781C85.0391 174.734 88.8828 170.75 88.9297 165.877C88.9297 160.909 84.9453 156.926 80.0235 156.926C75.0547 156.926 71.1172 160.956 71.1641 165.924ZM14.5859 136.822C19.5078 136.775 23.5391 132.698 23.4453 127.824C23.3516 122.95 19.3672 119.014 14.5391 119.014C9.6172 119.014 5.63282 122.997 5.63282 127.965C5.63282 132.932 9.6172 136.869 14.5859 136.822ZM5.58595 52.0939C5.58595 57.0613 9.52345 61.0447 14.4922 61.0447C19.4141 61.0447 23.4453 56.9676 23.3984 52.0939C23.3516 47.2202 19.4141 43.2837 14.5391 43.2837C9.57032 43.2368 5.63282 47.1264 5.58595 52.0939ZM154.414 52.1408C154.414 47.1733 150.477 43.2368 145.508 43.2368C140.586 43.2368 136.555 47.3139 136.602 52.1876C136.648 57.0613 140.586 60.9978 145.461 61.0447C150.383 61.0915 154.414 57.1082 154.414 52.1408Z" fill="#A5C881"/>
<path d="M68.2578 85.9512C67.0859 84.0762 66.0547 82.2949 64.9297 80.6074C64.6953 80.2324 64.0859 79.9043 63.6172 79.8574C61.0391 79.4824 58.4609 79.1543 55.8828 78.9199C55.1797 78.8731 54.3828 79.0137 53.7266 79.3418C47.7266 82.4824 44.3516 87.4512 43.6484 94.2012C43.6016 94.5293 43.6016 94.9043 43.5547 95.2324C43.4141 97.1543 42.3359 98.2324 40.7891 98.1387C39.1953 98.0449 38.0703 96.7793 38.3516 94.9043C38.7734 92.0449 39.2891 89.0918 40.2734 86.4199C41.8672 82.0606 44.8672 78.7324 48.7109 76.1074C49.0391 75.8731 49.4141 75.6856 49.7422 75.4043C49.8359 75.3574 49.8828 75.2168 49.9766 75.0762C47.6797 72.5449 46.0859 69.6387 45.5234 66.1699C44.2578 58.1074 49.0391 50.373 56.7734 47.9824C64.4609 45.5918 72.7578 49.1543 76.2266 56.4668C76.8828 57.8262 77.5859 58.3418 78.9922 57.9199C79.0391 57.9199 79.1328 57.8731 79.1797 57.9199C82.2266 58.7637 83.3984 56.9824 84.8984 54.5918C89.9141 46.6231 100.789 44.9355 108.242 50.6543C115.695 56.3262 116.867 67.0137 110.82 74.1856C110.539 74.5137 110.305 74.7949 109.93 75.2168C110.305 75.4981 110.68 75.7793 111.055 76.0606C117.57 80.5137 121.039 86.7012 121.602 94.5762C121.742 96.7324 120.852 98.0918 119.211 98.2324C117.57 98.3731 116.539 97.2481 116.352 95.0449C115.836 88.0137 112.555 82.7168 106.273 79.4824C105.523 79.1074 104.398 79.2012 103.508 79.2481C101.258 79.4356 99.0078 79.8106 96.7578 79.9043C95.7734 79.9512 95.2578 80.0918 94.7422 81.0762C93.8984 82.7168 92.8203 84.2637 91.7422 85.9981C92.0703 86.2324 92.5859 86.6074 93.1016 86.9356C99.2422 91.3887 102.711 97.3418 103.18 104.982C103.32 107.561 102.477 108.779 100.695 108.826C98.9609 108.873 98.1172 107.748 97.9297 105.311C97.4141 98.3731 94.0391 93.3106 87.8984 90.1231C87.1484 89.7481 85.9766 89.6543 85.1328 89.8887C81.5703 90.9199 78.1016 90.8731 74.5859 89.8418C73.8828 89.6543 72.9453 89.6543 72.2891 89.9356C66.0547 93.0293 62.5391 98.0918 61.9766 105.123C61.9297 105.639 61.9297 106.201 61.8359 106.67C61.5078 108.123 60.5703 108.92 59.0703 108.826C57.5703 108.732 56.5391 107.748 56.7266 106.295C57.1016 103.295 57.4766 100.248 58.4609 97.4356C60.2891 92.3262 63.8047 88.6699 68.2578 85.9512ZM79.7422 85.2481C85.9297 85.3887 90.9453 80.5137 91.0391 74.3262C91.1328 68.2793 86.2109 63.2168 80.1172 63.1231C74.1172 62.9824 69.0547 67.9043 68.9141 74.0449C68.7734 80.0449 73.6484 85.1543 79.7422 85.2481ZM71.9609 59.9355C70.3203 54.498 64.1797 51.3574 58.6016 52.9512C52.7891 54.6387 49.3672 60.7793 51.0547 66.6387C52.6016 72.1231 58.4141 75.7324 63.6641 74.3262C63.8047 68.0449 66.6172 63.2168 71.9609 59.9355ZM96.3828 74.4668C102.852 75.3574 108.102 71.6074 109.227 65.4199C110.258 59.7949 106.461 54.0762 100.883 52.8574C95.2578 51.5918 89.4453 54.7793 88.0859 59.9824C93.4297 63.2637 96.1953 68.0918 96.3828 74.4668Z" fill="#A5C881"/>
<path d="M80.1641 127.67C87.1953 127.67 94.1797 127.67 101.211 127.67C103.461 127.67 104.586 128.561 104.586 130.295C104.586 131.982 103.414 132.967 101.164 132.967C87.0078 132.967 72.8516 132.967 58.6953 132.967C56.0235 132.967 54.5235 131.092 55.5547 129.123C56.1641 127.904 57.2422 127.67 58.5078 127.67C65.8203 127.67 72.9922 127.67 80.1641 127.67Z" fill="#A5C881"/>
<path d="M98.0234 122.56C96.8047 122.56 95.5859 122.607 94.3672 122.56C92.6797 122.467 91.6484 121.436 91.6484 119.982C91.6484 118.576 92.6328 117.451 94.1797 117.404C96.8515 117.311 99.5703 117.311 102.242 117.404C103.836 117.451 104.727 118.576 104.68 120.029C104.633 121.482 103.695 122.42 102.102 122.56C102.008 122.56 101.867 122.56 101.773 122.56C100.461 122.56 99.2422 122.56 98.0234 122.56Z" fill="#A5C881"/>
<path d="M67.0391 122.561C65.5859 122.514 64.5078 121.482 64.5078 120.029C64.5078 118.482 65.6328 117.357 67.1797 117.404C68.5859 117.451 69.7578 118.576 69.7578 119.982C69.7578 121.342 68.5391 122.561 67.0391 122.561Z" fill="#A5C881"/>
<path d="M78.8516 119.982C78.8047 121.436 77.5391 122.607 76.086 122.514C74.6328 122.467 73.6016 121.342 73.6016 119.889C73.6016 118.342 74.7735 117.264 76.3203 117.357C77.7735 117.451 78.8985 118.623 78.8516 119.982Z" fill="#A5C881"/>
<path d="M60.6172 119.982C60.6172 121.435 59.3516 122.607 57.8984 122.56C56.4453 122.514 55.4141 121.435 55.4141 119.982C55.4141 118.435 56.5859 117.357 58.0859 117.404C59.4922 117.404 60.6172 118.576 60.6172 119.982Z" fill="#A5C881"/>
</g>
<defs>
<clipPath id="clip0_2012_147">
<rect width="159.328" height="180" fill="white" transform="translate(0.335938 0.0761719)"/>
</clipPath>
</defs>
</svg>
