<svg id="Layer_1" data-name="Layer 1" xmlns="http://www.w3.org/2000/svg" viewBox="0 0 183 29.22"><defs><style>.cls-1{fill:#e21936;}.cls-2{fill:#ffffff;}</style></defs><title>FP_Logo</title><polygon class="cls-1" points="0 0.43 0 16.55 4.93 16.55 4.93 10.5 11.93 10.5 11.93 6.87 4.93 6.87 4.93 4.07 12.37 4.07 12.37 0.43 0 0.43"/><path class="cls-1" d="M17.8,12.63l-1.12,3.92h-5.2L17,.43h6.73l5.92,16.13H24.22l-1.3-3.92Zm4.36-3.3-.94-2.85c-.31-.91-.68-2.08-1-3h-.05c-.29.93-.55,2.1-.84,3l-.83,2.82Z"/><path class="cls-1" d="M30.8.64A47.44,47.44,0,0,1,37,.29c2.95,0,4.91.38,6.26,1.27A4,4,0,0,1,45.11,5.1,4.34,4.34,0,0,1,42,9v.09a4.34,4.34,0,0,1,2.32,2.85c.6,1.65,1.2,4,1.54,4.64h-5a17.92,17.92,0,0,1-1.36-3.68c-.55-1.94-1.25-2.32-2.9-2.32h-.89v6H30.8Zm4.88,6.72h1.46c1.93,0,3.08-.72,3.08-1.94s-1-1.84-2.66-1.84a11.9,11.9,0,0,0-1.88.09Z"/><path class="cls-1" d="M46.65.64A47.44,47.44,0,0,1,52.86.29c2.95,0,4.91.38,6.26,1.27A4,4,0,0,1,61,5.1,4.34,4.34,0,0,1,57.82,9v.09a4.35,4.35,0,0,1,2.32,2.85c.6,1.65,1.2,4,1.54,4.64h-5a17.92,17.92,0,0,1-1.36-3.68c-.55-1.94-1.25-2.32-2.9-2.32h-.89v6H46.65Zm4.88,6.72H53c1.93,0,3.08-.72,3.08-1.94s-1-1.84-2.66-1.84a11.9,11.9,0,0,0-1.88.09Z"/><polygon class="cls-1" points="75.23 10.17 68.08 10.17 68.08 12.92 76.06 12.92 76.06 16.56 63.14 16.56 63.14 0.43 75.67 0.43 75.67 4.07 68.08 4.07 68.08 6.53 75.23 6.53 75.23 10.17"/><polygon class="cls-1" points="78.13 0.43 83.06 0.43 83.06 12.78 90.66 12.78 90.66 16.55 78.13 16.55 78.13 0.43"/><path class="cls-2" d="M3.42,23.29A1.06,1.06,0,0,0,2.67,23a1.56,1.56,0,0,0-.81.21,1.93,1.93,0,0,0-.59.53,2.41,2.41,0,0,0-.36.73,2.8,2.8,0,0,0-.12.8,2.32,2.32,0,0,0,.06.53,1.18,1.18,0,0,0,.2.44,1,1,0,0,0,.37.3,1.27,1.27,0,0,0,.56.11,1.42,1.42,0,0,0,.88-.27,1.55,1.55,0,0,0,.53-.72h.79a2.19,2.19,0,0,1-.78,1.25A2.28,2.28,0,0,1,2,27.37a1.93,1.93,0,0,1-1.49-.54A2.17,2.17,0,0,1,0,25.3,3.55,3.55,0,0,1,.18,24.2a2.85,2.85,0,0,1,.51-.95,2.55,2.55,0,0,1,.84-.66,2.55,2.55,0,0,1,1.14-.25,2,2,0,0,1,1.3.4A1.59,1.59,0,0,1,4.48,24H3.69a.89.89,0,0,0-.27-.69"/><path class="cls-2" d="M6.57,24.23a2.93,2.93,0,0,1,.53-1,2.63,2.63,0,0,1,.85-.67,2.48,2.48,0,0,1,1.13-.25,2,2,0,0,1,1.49.51,2,2,0,0,1,.51,1.49,3.69,3.69,0,0,1-.18,1.14,3,3,0,0,1-.52,1,2.59,2.59,0,0,1-.84.67,2.44,2.44,0,0,1-1.13.25,2.28,2.28,0,0,1-.85-.15,1.77,1.77,0,0,1-1-1,2.26,2.26,0,0,1-.14-.81,3.59,3.59,0,0,1,.18-1.14m.94,2.09a1.28,1.28,0,0,0,1,.36,1.34,1.34,0,0,0,.77-.22,2.05,2.05,0,0,0,.56-.56,2.64,2.64,0,0,0,.34-.74,2.72,2.72,0,0,0,.12-.75,1.83,1.83,0,0,0-.07-.53,1.11,1.11,0,0,0-.63-.72A1.37,1.37,0,0,0,9,23a1.44,1.44,0,0,0-.8.22,2,2,0,0,0-.58.56,2.52,2.52,0,0,0-.35.75,2.88,2.88,0,0,0-.12.78,1.35,1.35,0,0,0,.34,1"/><path class="cls-2" d="M14.72,22.46l-.15.73h0a1.88,1.88,0,0,1,.75-.63,2.27,2.27,0,0,1,1-.21,1.47,1.47,0,0,1,1,.3,1.21,1.21,0,0,1,.33.94,3,3,0,0,1,0,.41c0,.17-.06.34-.1.53l-.59,2.75h-.79l.61-2.81s0-.11,0-.17l0-.21c0-.07,0-.14,0-.21a1.25,1.25,0,0,0,0-.16.57.57,0,0,0-.24-.51A1,1,0,0,0,16,23a1.45,1.45,0,0,0-.65.16,1.87,1.87,0,0,0-.54.4,1.31,1.31,0,0,0-.34.45,3.41,3.41,0,0,0-.2.55l-.56,2.66H13l1-4.81Z"/><path class="cls-2" d="M22.59,22.46l-.15.7h-1L20.89,26l0,.16a1.26,1.26,0,0,0,0,.16.26.26,0,0,0,.14.26.73.73,0,0,0,.33.07l.23,0,.22-.06-.14.73-.28,0h-.28a2.74,2.74,0,0,1-.42,0,1,1,0,0,1-.34-.12.69.69,0,0,1-.23-.24.74.74,0,0,1-.09-.38,1.4,1.4,0,0,1,0-.2l0-.21.63-3h-.81l.15-.7h.81l.3-1.42h.79l-.3,1.42Z"/><path class="cls-2" d="M25.67,22.46l-1,4.81h-.78l1-4.81Zm-.61-.87.21-1h.8l-.21,1Z"/><path class="cls-2" d="M29.14,22.46l-.15.73h0a1.88,1.88,0,0,1,.75-.63,2.27,2.27,0,0,1,1-.21,1.47,1.47,0,0,1,1,.3,1.21,1.21,0,0,1,.33.94A3,3,0,0,1,32,24c0,.17-.06.34-.1.53l-.59,2.75h-.79l.62-2.81s0-.11,0-.17l0-.21c0-.07,0-.14,0-.21a1.25,1.25,0,0,0,0-.16A.57.57,0,0,0,31,23.2a1,1,0,0,0-.6-.16,1.45,1.45,0,0,0-.65.16,1.87,1.87,0,0,0-.54.4,1.31,1.31,0,0,0-.34.45,3.41,3.41,0,0,0-.2.55l-.56,2.66h-.78l1-4.81Z"/><path class="cls-2" d="M37.05,27.27l.15-.73h0a1.84,1.84,0,0,1-.75.62,2.31,2.31,0,0,1-1,.21,1.48,1.48,0,0,1-1-.29,1.19,1.19,0,0,1-.33-.94,2.88,2.88,0,0,1,0-.41c0-.17.06-.34.1-.53l.59-2.75h.79L35,25.27s0,.1,0,.17l0,.21c0,.07,0,.14,0,.21a1.4,1.4,0,0,0,0,.16.57.57,0,0,0,.24.51,1,1,0,0,0,.6.16,1.45,1.45,0,0,0,.62-.13,1.79,1.79,0,0,0,.51-.35,2.12,2.12,0,0,0,.38-.5,2.15,2.15,0,0,0,.22-.58L38,22.46h.79l-1,4.81Z"/><path class="cls-2" d="M40.92,24.23a2.93,2.93,0,0,1,.53-1,2.65,2.65,0,0,1,.85-.67,2.48,2.48,0,0,1,1.13-.25,2,2,0,0,1,1.49.51,2,2,0,0,1,.51,1.49,3.69,3.69,0,0,1-.18,1.14,3,3,0,0,1-.52,1,2.59,2.59,0,0,1-.84.67,2.44,2.44,0,0,1-1.13.25,2.28,2.28,0,0,1-.85-.15,1.77,1.77,0,0,1-1-1,2.26,2.26,0,0,1-.14-.81,3.59,3.59,0,0,1,.18-1.14m.94,2.09a1.28,1.28,0,0,0,1,.36,1.34,1.34,0,0,0,.77-.22,2.05,2.05,0,0,0,.56-.56,2.64,2.64,0,0,0,.34-.74,2.72,2.72,0,0,0,.12-.75,1.83,1.83,0,0,0-.07-.53,1.11,1.11,0,0,0-.63-.72,1.37,1.37,0,0,0-.56-.11,1.44,1.44,0,0,0-.8.22,2,2,0,0,0-.58.56,2.52,2.52,0,0,0-.35.75,2.88,2.88,0,0,0-.12.78,1.35,1.35,0,0,0,.34,1"/><path class="cls-2" d="M50.41,27.27l.15-.73h0a1.84,1.84,0,0,1-.75.62,2.31,2.31,0,0,1-1,.21,1.48,1.48,0,0,1-1-.29,1.19,1.19,0,0,1-.33-.94,2.88,2.88,0,0,1,0-.41c0-.17.06-.34.1-.53l.59-2.75H49l-.62,2.81s0,.1,0,.17l0,.21c0,.07,0,.14,0,.21a1.4,1.4,0,0,0,0,.16.57.57,0,0,0,.24.51,1,1,0,0,0,.6.16,1.45,1.45,0,0,0,.62-.13,1.79,1.79,0,0,0,.51-.35,2.12,2.12,0,0,0,.38-.5,2.19,2.19,0,0,0,.22-.58l.56-2.66h.79l-1,4.81Z"/><path class="cls-2" d="M57,23.25a1.22,1.22,0,0,0-.72-.21l-.36,0a1.15,1.15,0,0,0-.33.1.68.68,0,0,0-.24.19.46.46,0,0,0-.09.3.42.42,0,0,0,.11.29,1.07,1.07,0,0,0,.29.22,3,3,0,0,0,.41.19l.46.18.47.22a2.2,2.2,0,0,1,.4.27,1.26,1.26,0,0,1,.29.36,1,1,0,0,1,.11.49,1.27,1.27,0,0,1-.18.69,1.45,1.45,0,0,1-.46.46,2,2,0,0,1-.63.26,3.22,3.22,0,0,1-.7.08,3.59,3.59,0,0,1-.77-.08A1.63,1.63,0,0,1,54.4,27a1.28,1.28,0,0,1-.41-.5,1.8,1.8,0,0,1-.15-.78h.78a.79.79,0,0,0,.08.44.76.76,0,0,0,.27.29,1.21,1.21,0,0,0,.4.15,2.36,2.36,0,0,0,.48,0,2,2,0,0,0,.39,0,1.14,1.14,0,0,0,.35-.13.77.77,0,0,0,.26-.23.59.59,0,0,0,.1-.34.44.44,0,0,0-.11-.3,1.17,1.17,0,0,0-.29-.23,2.89,2.89,0,0,0-.41-.19L55.7,25l-.47-.21a2,2,0,0,1-.41-.26,1.21,1.21,0,0,1-.29-.36,1,1,0,0,1-.11-.47,1.15,1.15,0,0,1,.15-.6,1.35,1.35,0,0,1,.4-.43,2,2,0,0,1,.57-.26,2.36,2.36,0,0,1,.66-.09,2.78,2.78,0,0,1,.66.08,1.66,1.66,0,0,1,.58.26,1.37,1.37,0,0,1,.42.47,1.48,1.48,0,0,1,.16.71h-.79a.67.67,0,0,0-.28-.62"/><path class="cls-2" d="M67.42,23.29a1.06,1.06,0,0,0-.74-.25,1.56,1.56,0,0,0-.81.21,1.93,1.93,0,0,0-.59.53,2.41,2.41,0,0,0-.36.73,2.8,2.8,0,0,0-.12.8,2.32,2.32,0,0,0,.06.53,1.18,1.18,0,0,0,.2.44,1,1,0,0,0,.37.3,1.27,1.27,0,0,0,.56.11,1.42,1.42,0,0,0,.88-.27,1.55,1.55,0,0,0,.53-.72h.79a2.19,2.19,0,0,1-.78,1.25,2.28,2.28,0,0,1-1.42.43,1.93,1.93,0,0,1-1.49-.54A2.17,2.17,0,0,1,64,25.3a3.55,3.55,0,0,1,.17-1.11,2.85,2.85,0,0,1,.51-.95,2.47,2.47,0,0,1,2-.91,2,2,0,0,1,1.3.4A1.59,1.59,0,0,1,68.48,24h-.79a.89.89,0,0,0-.27-.69"/><path class="cls-2" d="M70.57,24.23a2.93,2.93,0,0,1,.53-1,2.65,2.65,0,0,1,.85-.67,2.48,2.48,0,0,1,1.13-.25,2,2,0,0,1,1.49.51,2,2,0,0,1,.51,1.49,3.69,3.69,0,0,1-.18,1.14,3,3,0,0,1-.52,1,2.59,2.59,0,0,1-.84.67,2.44,2.44,0,0,1-1.13.25,2.28,2.28,0,0,1-.85-.15,1.77,1.77,0,0,1-1-1,2.26,2.26,0,0,1-.14-.81,3.59,3.59,0,0,1,.18-1.14m.94,2.09a1.28,1.28,0,0,0,1,.36,1.34,1.34,0,0,0,.77-.22,2.05,2.05,0,0,0,.56-.56,2.64,2.64,0,0,0,.34-.74,2.72,2.72,0,0,0,.12-.75,1.83,1.83,0,0,0-.07-.53,1.11,1.11,0,0,0-.63-.72A1.37,1.37,0,0,0,73,23a1.44,1.44,0,0,0-.8.22,2,2,0,0,0-.58.56,2.52,2.52,0,0,0-.35.75,2.88,2.88,0,0,0-.12.78,1.35,1.35,0,0,0,.34,1"/><path class="cls-2" d="M78.7,22.46l-.18.72,0,0a2.28,2.28,0,0,1,.74-.62,2,2,0,0,1,.94-.23,1.5,1.5,0,0,1,.78.2,1,1,0,0,1,.43.67,2.09,2.09,0,0,1,.72-.63,1.94,1.94,0,0,1,.93-.24,2.09,2.09,0,0,1,.49.06,1.4,1.4,0,0,1,.43.19.93.93,0,0,1,.3.33,1.05,1.05,0,0,1,.11.5,3,3,0,0,1,0,.49c0,.18-.06.34-.09.47l-.61,2.89h-.79l.67-3.05a2.69,2.69,0,0,0,.05-.26,1.65,1.65,0,0,0,0-.26.6.6,0,0,0-.21-.47A.76.76,0,0,0,82.9,23a1.11,1.11,0,0,0-.34.06,1.84,1.84,0,0,0-.63.35,2,2,0,0,0-.24.25,1.37,1.37,0,0,0-.29.49,5.28,5.28,0,0,0-.16.59l-.53,2.49h-.79l.58-2.75c0-.19.08-.36.11-.52a2.37,2.37,0,0,0,0-.33.62.62,0,0,0-.17-.47A.69.69,0,0,0,80,23a1.28,1.28,0,0,0-.65.19,2.16,2.16,0,0,0-.54.43,1.37,1.37,0,0,0-.34.49,4.13,4.13,0,0,0-.17.6l-.54,2.52H77l1-4.81Z"/><path class="cls-2" d="M88,22.46l-.17.69h0a2,2,0,0,1,.73-.63,2.32,2.32,0,0,1,1.68,0,1.65,1.65,0,0,1,.59.4,1.68,1.68,0,0,1,.36.62,2.55,2.55,0,0,1,.12.8,3.46,3.46,0,0,1-.18,1.09,3.25,3.25,0,0,1-.52,1,2.64,2.64,0,0,1-.84.71,2.33,2.33,0,0,1-1.13.27,2.85,2.85,0,0,1-.45,0,1.6,1.6,0,0,1-.45-.13,1.31,1.31,0,0,1-.37-.26.9.9,0,0,1-.23-.41h0l-.51,2.57h-.77l1.4-6.65Zm2.25.93a1.18,1.18,0,0,0-.94-.34,1.42,1.42,0,0,0-.8.23,2.09,2.09,0,0,0-.59.59,2.82,2.82,0,0,0-.36.77,2.76,2.76,0,0,0-.13.8,1.3,1.3,0,0,0,.31.89,1.13,1.13,0,0,0,.9.35,1.54,1.54,0,0,0,.83-.22,2,2,0,0,0,.6-.56,2.53,2.53,0,0,0,.36-.76,2.92,2.92,0,0,0,.12-.82,1.39,1.39,0,0,0-.29-.93"/><path class="cls-2" d="M93.62,24.23a2.93,2.93,0,0,1,.53-1,2.65,2.65,0,0,1,.85-.67,2.48,2.48,0,0,1,1.13-.25,2,2,0,0,1,1.49.51,2,2,0,0,1,.51,1.49A3.69,3.69,0,0,1,98,25.47a3,3,0,0,1-.52,1,2.59,2.59,0,0,1-.84.67,2.44,2.44,0,0,1-1.13.25,2.29,2.29,0,0,1-.85-.15,1.79,1.79,0,0,1-.64-.41,1.81,1.81,0,0,1-.4-.63,2.26,2.26,0,0,1-.14-.81,3.59,3.59,0,0,1,.18-1.14m.94,2.09a1.28,1.28,0,0,0,1,.36,1.33,1.33,0,0,0,.77-.22,2.05,2.05,0,0,0,.56-.56,2.64,2.64,0,0,0,.34-.74,2.67,2.67,0,0,0,.12-.75,1.87,1.87,0,0,0-.07-.53,1.11,1.11,0,0,0-.63-.72,1.37,1.37,0,0,0-.56-.11,1.45,1.45,0,0,0-.8.22,2,2,0,0,0-.58.56,2.56,2.56,0,0,0-.35.75,2.88,2.88,0,0,0-.12.78,1.35,1.35,0,0,0,.34,1"/><path class="cls-2" d="M103.1,27.27l.15-.73h0a1.84,1.84,0,0,1-.75.62,2.31,2.31,0,0,1-1,.21,1.48,1.48,0,0,1-1-.29,1.19,1.19,0,0,1-.33-.94,2.88,2.88,0,0,1,0-.41c0-.17.06-.34.1-.53l.59-2.75h.79l-.61,2.81a1.68,1.68,0,0,0,0,.17l0,.21c0,.07,0,.14,0,.21s0,.12,0,.16a.57.57,0,0,0,.24.51,1,1,0,0,0,.6.16,1.44,1.44,0,0,0,.62-.13,1.77,1.77,0,0,0,.51-.35,2.09,2.09,0,0,0,.38-.5,2.19,2.19,0,0,0,.22-.58l.56-2.66h.79l-1,4.81Z"/><path class="cls-2" d="M108.36,22.46l-.15.73h0a1.88,1.88,0,0,1,.75-.63,2.27,2.27,0,0,1,1-.21,1.47,1.47,0,0,1,1,.3,1.21,1.21,0,0,1,.33.94,3,3,0,0,1,0,.41c0,.17-.06.34-.1.53l-.59,2.75h-.79l.61-2.81s0-.11,0-.17l0-.21c0-.07,0-.14,0-.21a1.25,1.25,0,0,0,0-.16.57.57,0,0,0-.24-.51,1,1,0,0,0-.6-.16,1.45,1.45,0,0,0-.65.16,1.87,1.87,0,0,0-.54.4,1.31,1.31,0,0,0-.34.45,3.41,3.41,0,0,0-.2.55l-.56,2.66h-.78l1-4.81Z"/><path class="cls-2" d="M116.71,27.27l.17-.69h0a1.92,1.92,0,0,1-.73.63,2.35,2.35,0,0,1-1.67,0,1.68,1.68,0,0,1-.6-.4,1.64,1.64,0,0,1-.36-.62,2.55,2.55,0,0,1-.12-.8,3.43,3.43,0,0,1,.18-1.09,3.26,3.26,0,0,1,.52-1,2.71,2.71,0,0,1,.84-.71,2.32,2.32,0,0,1,1.13-.27,2.58,2.58,0,0,1,.46,0,1.8,1.8,0,0,1,.44.14,1.23,1.23,0,0,1,.37.26,1,1,0,0,1,.23.4h0l.51-2.57h.78l-1.41,6.65Zm-2.25-.93a1.18,1.18,0,0,0,.95.34,1.43,1.43,0,0,0,.8-.23,2.09,2.09,0,0,0,.59-.59,2.84,2.84,0,0,0,.36-.78,2.77,2.77,0,0,0,.13-.8,1.3,1.3,0,0,0-.31-.89,1.13,1.13,0,0,0-.9-.35,1.54,1.54,0,0,0-.83.22,2,2,0,0,0-.6.56,2.55,2.55,0,0,0-.36.76,2.93,2.93,0,0,0-.12.82,1.39,1.39,0,0,0,.29.93"/><path class="cls-2" d="M121.9,22.46l-1,4.81h-.78l1-4.81Zm-.61-.87.21-1h.8l-.2,1Z"/><path class="cls-2" d="M125.37,22.46l-.15.73h0a1.88,1.88,0,0,1,.75-.63,2.27,2.27,0,0,1,1-.21,1.47,1.47,0,0,1,1,.3,1.21,1.21,0,0,1,.33.94,2.87,2.87,0,0,1,0,.41c0,.17-.06.34-.1.53l-.59,2.75h-.79l.61-2.81s0-.11,0-.17l0-.21c0-.07,0-.14,0-.21a1.25,1.25,0,0,0,0-.16.57.57,0,0,0-.24-.51,1,1,0,0,0-.6-.16,1.45,1.45,0,0,0-.65.16,1.85,1.85,0,0,0-.54.4,1.31,1.31,0,0,0-.34.45,3.3,3.3,0,0,0-.2.55l-.56,2.66h-.78l1-4.81Z"/><path class="cls-2" d="M134.32,27.28a5.49,5.49,0,0,1-.2.59,2,2,0,0,1-.86,1,2.68,2.68,0,0,1-1.33.31,3,3,0,0,1-.71-.08,1.85,1.85,0,0,1-.6-.26,1.37,1.37,0,0,1-.42-.46,1.41,1.41,0,0,1-.17-.69h.78a.73.73,0,0,0,.4.64,1.12,1.12,0,0,0,.38.12,2.94,2.94,0,0,0,.44,0,1.39,1.39,0,0,0,1.23-.61,2.25,2.25,0,0,0,.29-.62c.07-.23.14-.47.2-.7l0,0a1.48,1.48,0,0,1-.65.56,2.13,2.13,0,0,1-.85.17,2,2,0,0,1-.79-.14,1.48,1.48,0,0,1-.56-.41,1.84,1.84,0,0,1-.34-.63,2.64,2.64,0,0,1-.12-.8,3.41,3.41,0,0,1,.17-1.06,3.22,3.22,0,0,1,.49-1,2.58,2.58,0,0,1,.79-.69,2.08,2.08,0,0,1,1.05-.27,1.91,1.91,0,0,1,1,.27,1.3,1.3,0,0,1,.35.31,1.06,1.06,0,0,1,.2.41v0h0l.15-.88h.75l-.87,4.12q-.08.37-.18.71m-3-1.48a1.23,1.23,0,0,0,.22.41,1,1,0,0,0,.37.28,1.19,1.19,0,0,0,.52.11,1.36,1.36,0,0,0,.78-.22,1.87,1.87,0,0,0,.54-.57,2.77,2.77,0,0,0,.32-.75,3,3,0,0,0,.11-.77,1.33,1.33,0,0,0-.3-.91,1.17,1.17,0,0,0-.93-.34,1.21,1.21,0,0,0-.74.23,2.07,2.07,0,0,0-.53.57,2.79,2.79,0,0,0-.33.74,2.75,2.75,0,0,0-.11.73,1.62,1.62,0,0,0,.07.49"/><path class="cls-2" d="M144,23.25a1.21,1.21,0,0,0-.72-.21l-.36,0a1.15,1.15,0,0,0-.33.1.68.68,0,0,0-.24.19.47.47,0,0,0-.09.3.43.43,0,0,0,.11.29,1.06,1.06,0,0,0,.29.22,2.86,2.86,0,0,0,.41.19l.46.18.47.22a2.21,2.21,0,0,1,.41.27,1.31,1.31,0,0,1,.29.36,1,1,0,0,1,.11.49,1.27,1.27,0,0,1-.18.69,1.44,1.44,0,0,1-.46.46,2,2,0,0,1-.63.26,3.22,3.22,0,0,1-.7.08,3.59,3.59,0,0,1-.77-.08,1.63,1.63,0,0,1-.61-.27,1.29,1.29,0,0,1-.41-.5,1.8,1.8,0,0,1-.15-.78h.78a.79.79,0,0,0,.08.44.76.76,0,0,0,.27.29,1.21,1.21,0,0,0,.4.15,2.36,2.36,0,0,0,.48,0,2,2,0,0,0,.39,0,1.14,1.14,0,0,0,.35-.13.77.77,0,0,0,.26-.23.59.59,0,0,0,.1-.34.44.44,0,0,0-.11-.3,1.15,1.15,0,0,0-.29-.23,3,3,0,0,0-.4-.19l-.46-.19-.47-.21a2,2,0,0,1-.41-.26,1.21,1.21,0,0,1-.29-.36,1,1,0,0,1-.11-.47,1.15,1.15,0,0,1,.15-.6,1.35,1.35,0,0,1,.41-.43,2,2,0,0,1,.57-.26,2.33,2.33,0,0,1,.66-.09,2.77,2.77,0,0,1,.66.08,1.66,1.66,0,0,1,.58.26,1.36,1.36,0,0,1,.42.47,1.48,1.48,0,0,1,.16.71h-.79a.67.67,0,0,0-.28-.62"/><path class="cls-2" d="M148.09,28.52a2.16,2.16,0,0,1-.33.36,1.4,1.4,0,0,1-.4.24,1.42,1.42,0,0,1-.52.09,1.36,1.36,0,0,1-.29,0,1.07,1.07,0,0,1-.26-.09l.14-.64a1,1,0,0,0,.22.09.87.87,0,0,0,.22,0,.64.64,0,0,0,.44-.14,1.49,1.49,0,0,0,.31-.38l.49-.79-.85-4.81h.85l.56,3.83h0l2-3.83h.87l-3.18,5.62-.3.44"/><path class="cls-2" d="M155.79,23.25a1.21,1.21,0,0,0-.72-.21l-.36,0a1.15,1.15,0,0,0-.33.1.68.68,0,0,0-.24.19.47.47,0,0,0-.09.3.42.42,0,0,0,.11.29,1.06,1.06,0,0,0,.29.22,2.93,2.93,0,0,0,.41.19l.46.18.47.22a2.21,2.21,0,0,1,.41.27,1.31,1.31,0,0,1,.29.36,1,1,0,0,1,.11.49,1.27,1.27,0,0,1-.18.69A1.43,1.43,0,0,1,156,27a2,2,0,0,1-.63.26,3.22,3.22,0,0,1-.7.08,3.59,3.59,0,0,1-.77-.08,1.63,1.63,0,0,1-.61-.27,1.29,1.29,0,0,1-.41-.5,1.8,1.8,0,0,1-.15-.78h.78a.79.79,0,0,0,.08.44.76.76,0,0,0,.27.29,1.21,1.21,0,0,0,.4.15,2.36,2.36,0,0,0,.48,0,2,2,0,0,0,.39,0,1.14,1.14,0,0,0,.35-.13.77.77,0,0,0,.26-.23.58.58,0,0,0,.1-.34.44.44,0,0,0-.11-.3,1.15,1.15,0,0,0-.29-.23,3,3,0,0,0-.4-.19l-.46-.19-.47-.21a1.93,1.93,0,0,1-.41-.26,1.21,1.21,0,0,1-.29-.36,1,1,0,0,1-.11-.47,1.14,1.14,0,0,1,.15-.6,1.35,1.35,0,0,1,.41-.43,2,2,0,0,1,.57-.26,2.34,2.34,0,0,1,.66-.09,2.77,2.77,0,0,1,.66.08,1.66,1.66,0,0,1,.58.26,1.36,1.36,0,0,1,.42.47,1.48,1.48,0,0,1,.16.71h-.79a.67.67,0,0,0-.28-.62"/><path class="cls-2" d="M161.68,22.46l-.15.7h-1L160,26l0,.16a1.57,1.57,0,0,0,0,.16.26.26,0,0,0,.14.26.73.73,0,0,0,.33.07l.23,0,.22-.06-.14.73-.28,0h-.28a2.72,2.72,0,0,1-.42,0,1,1,0,0,1-.34-.12.69.69,0,0,1-.23-.24.73.73,0,0,1-.09-.38,1.4,1.4,0,0,1,0-.2l0-.21.63-3H159l.15-.7h.81l.3-1.42H161l-.3,1.42Z"/><path class="cls-2" d="M163.89,25.52a1.14,1.14,0,0,0,.1.5,1,1,0,0,0,.28.36,1.32,1.32,0,0,0,.4.22,1.37,1.37,0,0,0,.46.08,1.51,1.51,0,0,0,.88-.24,1.4,1.4,0,0,0,.51-.69h.79a2.12,2.12,0,0,1-.3.7,1.91,1.91,0,0,1-.49.5,2.21,2.21,0,0,1-.64.3,2.66,2.66,0,0,1-.74.1,2.37,2.37,0,0,1-1-.18,1.71,1.71,0,0,1-.63-.47,1.66,1.66,0,0,1-.33-.62,2.47,2.47,0,0,1-.09-.66,3.81,3.81,0,0,1,.2-1.26,3.14,3.14,0,0,1,.54-1,2.42,2.42,0,0,1,.79-.63,2.1,2.1,0,0,1,.95-.22,2,2,0,0,1,1.55.56,2.31,2.31,0,0,1,.49,1.57,2.12,2.12,0,0,1,0,.35l0,.27h-3.62a3,3,0,0,0,0,.42m2.9-1.62a1.15,1.15,0,0,0-.19-.44,1,1,0,0,0-.36-.31,1.18,1.18,0,0,0-.55-.12,1.71,1.71,0,0,0-.62.11,1.53,1.53,0,0,0-.48.29,1.77,1.77,0,0,0-.35.43,2.58,2.58,0,0,0-.22.53h2.79a1.78,1.78,0,0,0,0-.5"/><path class="cls-2" d="M171.14,22.46l-.18.72,0,0a2.28,2.28,0,0,1,.74-.62,2,2,0,0,1,.94-.23,1.49,1.49,0,0,1,.78.2,1,1,0,0,1,.43.67,2.08,2.08,0,0,1,.72-.63,1.94,1.94,0,0,1,.93-.24,2.08,2.08,0,0,1,.49.06,1.4,1.4,0,0,1,.43.19.93.93,0,0,1,.3.33,1.05,1.05,0,0,1,.11.5,3,3,0,0,1,0,.49c0,.18-.06.34-.09.47l-.61,2.89h-.79l.67-3.05a2.68,2.68,0,0,0,.05-.26,1.65,1.65,0,0,0,0-.26.59.59,0,0,0-.21-.47.76.76,0,0,0-.53-.19,1.11,1.11,0,0,0-.34.06,1.88,1.88,0,0,0-.33.14,1.91,1.91,0,0,0-.3.21,2,2,0,0,0-.24.25,1.37,1.37,0,0,0-.29.49,5.28,5.28,0,0,0-.16.59l-.53,2.49h-.79l.58-2.75c0-.19.08-.36.11-.52a2.37,2.37,0,0,0,0-.33.61.61,0,0,0-.17-.47.68.68,0,0,0-.5-.17,1.27,1.27,0,0,0-.65.19,2.14,2.14,0,0,0-.54.43,1.39,1.39,0,0,0-.34.49,4.13,4.13,0,0,0-.17.6l-.54,2.52h-.78l1-4.81Z"/><path class="cls-2" d="M181.8,23.25a1.22,1.22,0,0,0-.72-.21l-.36,0a1.14,1.14,0,0,0-.33.1.68.68,0,0,0-.24.19.47.47,0,0,0-.09.3.42.42,0,0,0,.11.29,1.1,1.1,0,0,0,.29.22,3,3,0,0,0,.41.19l.46.18.47.22a2.2,2.2,0,0,1,.4.27,1.26,1.26,0,0,1,.29.36,1,1,0,0,1,.11.49,1.27,1.27,0,0,1-.18.69A1.45,1.45,0,0,1,182,27a2,2,0,0,1-.63.26,3.22,3.22,0,0,1-.7.08,3.61,3.61,0,0,1-.77-.08,1.64,1.64,0,0,1-.61-.27,1.28,1.28,0,0,1-.41-.5,1.8,1.8,0,0,1-.15-.78h.78a.8.8,0,0,0,.08.44.77.77,0,0,0,.27.29,1.21,1.21,0,0,0,.4.15,2.35,2.35,0,0,0,.48,0,2.06,2.06,0,0,0,.39,0,1.15,1.15,0,0,0,.35-.13.78.78,0,0,0,.26-.23.58.58,0,0,0,.1-.34.44.44,0,0,0-.11-.3,1.17,1.17,0,0,0-.29-.23,3,3,0,0,0-.41-.19l-.46-.19-.47-.21a1.92,1.92,0,0,1-.41-.26,1.21,1.21,0,0,1-.29-.36,1,1,0,0,1-.11-.47,1.15,1.15,0,0,1,.15-.6,1.37,1.37,0,0,1,.41-.43,2,2,0,0,1,.57-.26,2.35,2.35,0,0,1,.66-.09,2.78,2.78,0,0,1,.66.08,1.67,1.67,0,0,1,.58.26,1.37,1.37,0,0,1,.42.47,1.48,1.48,0,0,1,.16.71h-.79a.67.67,0,0,0-.28-.62"/><path class="cls-1" d="M98.32.28h8.31a5.69,5.69,0,0,1,4.07,1.29A4.84,4.84,0,0,1,112,5.24a5,5,0,0,1-1.47,3.83,6.38,6.38,0,0,1-4.49,1.38h-2.74v6h-5Zm5,6.89h1.22a3.15,3.15,0,0,0,2-.5,1.61,1.61,0,0,0,.58-1.28,1.8,1.8,0,0,0-.51-1.29,2.64,2.64,0,0,0-1.91-.53h-1.42Z"/><path class="cls-1" d="M113.1,8.37a8.34,8.34,0,0,1,2.21-6.17A8.31,8.31,0,0,1,121.45,0a8.45,8.45,0,0,1,6.22,2.17,8.17,8.17,0,0,1,2.18,6.07,10,10,0,0,1-1,4.65,6.8,6.8,0,0,1-2.76,2.82,9.09,9.09,0,0,1-4.49,1,10.33,10.33,0,0,1-4.53-.87,6.81,6.81,0,0,1-2.91-2.76,9.16,9.16,0,0,1-1.11-4.72m5,0a5.43,5.43,0,0,0,.91,3.52,3.44,3.44,0,0,0,5,0,6,6,0,0,0,.88-3.76,5,5,0,0,0-.92-3.34,3.15,3.15,0,0,0-2.5-1.05A3,3,0,0,0,119,4.85a5.45,5.45,0,0,0-.91,3.54"/><polygon class="cls-1" points="131.57 0.28 138.14 0.28 140.67 10.12 143.19 0.28 149.75 0.28 149.75 16.45 145.66 16.45 145.66 4.12 142.51 16.45 138.81 16.45 135.66 4.12 135.66 16.45 131.57 16.45 131.57 0.28"/><rect class="cls-1" x="152.24" y="0.28" width="5.01" height="16.17"/><polygon class="cls-1" points="159.94 0.28 164.6 0.28 170.69 9.22 170.69 0.28 175.4 0.28 175.4 16.45 170.69 16.45 164.63 7.57 164.63 16.45 159.94 16.45 159.94 0.28"/><rect class="cls-1" x="177.99" y="0.28" width="5.01" height="16.17"/></svg>