<?xml version="1.0" encoding="utf-8"?>
<!-- Generator: Adobe Illustrator 26.3.1, SVG Export Plug-In . SVG Version: 6.00 Build 0)  -->
<svg version="1.1" xmlns="http://www.w3.org/2000/svg" xmlns:xlink="http://www.w3.org/1999/xlink" x="0px" y="0px"
	 viewBox="0 0 360 165.2" style="enable-background:new 0 0 360 165.2;" xml:space="preserve">
<style type="text/css">
	.st0{fill:#FFFFFF;}
</style>
<g id="background__x2013__DO_NOT_PRINT">
</g>
<g id="artwork">
	<g>
		<rect x="19.3" y="44.3" class="st0" width="30.5" height="66.8"/>
		<path class="st0" d="M310.8,83.1c-15.6,0-26.5-13-26.5-29.7v-0.3c0-3.9,0.6-7.6,1.8-11h-32.4c-0.7,3.6-1,7.4-1,11.3v0.3
			c0,33.2,25.6,57.5,57.3,57.5c24.5,0,38.6-10.6,49.1-25.1l-23.2-16.5C329.3,77.7,322.4,83.1,310.8,83.1z"/>
		<path class="st0" d="M312.8,0h-75.1L257,24.8h54.8c10.7,0,20.8,6.3,25.9,15.5L360,23C350.2,9.5,335.5,0,312.8,0z"/>
		<path class="st0" d="M33.7,131H19.3v33.5h9.3v-9.6h4.6c8.3,0,14.4-4.2,14.4-12.1v-0.1C47.6,135.3,42.2,131,33.7,131z M38.4,143.3
			c0,2.6-2.1,4.4-5.3,4.4h-4.5v-8.9H33C36.3,138.8,38.4,140.3,38.4,143.3L38.4,143.3z"/>
		<path class="st0" d="M65.5,130.7l-14.2,33.8H61l2.4-6h13l2.4,6h10l-14.3-33.8H65.5z M66.2,151.3l3.8-9.5l3.7,9.5H66.2z"/>
		<path class="st0" d="M111.6,156.7c-4.7,0-8-3.9-8-9v-0.1c0-4.9,3.3-8.9,8-8.9c3.2,0,5.4,1.6,7.3,3.9l7-5.4
			c-3-4.1-7.4-6.9-14.2-6.9c-10.2,0-17.6,7.7-17.6,17.4v0.1c0,10,7.7,17.3,17.3,17.3c7.4,0,11.6-3.2,14.8-7.6l-7-5
			C117.2,155.1,115.1,156.7,111.6,156.7z"/>
		<polygon class="st0" points="167.8,131 156.8,131 145.2,144.6 145.2,131 135.9,131 135.9,164.5 145.2,164.5 145.2,155.8 
			148.6,152.1 157.1,164.5 168.2,164.5 155.1,145.4 		"/>
		<path class="st0" d="M188.8,130.7l-14.2,33.8h9.7l2.4-6h13l2.4,6h10l-14.3-33.8H188.8z M189.4,151.3l3.8-9.5l3.7,9.5H189.4z"/>
		<path class="st0" d="M234.7,151.7h6.6v4.1c-1.3,0.9-3.1,1.4-5.4,1.4c-5.3,0-9.1-3.9-9.1-9.3v-0.1c0-5.1,3.7-9.2,8.6-9.2
			c3.4,0,5.7,1.1,8.1,3.2l5.5-6.6c-3.5-3.1-7.7-4.8-13.6-4.8c-10.4,0-18,7.7-18,17.4v0.1c0,10.2,7.8,17.3,18.2,17.3
			c6.1,0,11-2.3,14.6-5.2v-15h-15.4V151.7z"/>
		<rect x="260.3" y="131" class="st0" width="9.3" height="33.5"/>
		<polygon class="st0" points="303.9,148.7 290.1,131 281.5,131 281.5,164.5 290.7,164.5 290.7,146.1 305,164.5 313.1,164.5 
			313.1,131 303.9,131 		"/>
		<path class="st0" d="M341.1,151.7h6.6v4.1c-1.3,0.9-3.1,1.4-5.4,1.4c-5.3,0-9.1-3.9-9.1-9.3v-0.1c0-5.1,3.7-9.2,8.6-9.2
			c3.4,0,5.7,1.1,8.1,3.2l5.5-6.6c-3.5-3.1-7.7-4.8-13.6-4.8c-10.4,0-18,7.7-18,17.4v0.1c0,10.2,7.8,17.3,18.2,17.3
			c6.1,0,11-2.3,14.6-5.2v-15h-15.4V151.7z"/>
		<path class="st0" d="M0.1,0.2C0.1,0.2,0.1,0.1,0.1,0.2C0.1,0.1,0.1,0.2,0.1,0.2C0.2,0.2,0.2,0.2,0.1,0.2c0.1,0.1,0.1,0.1,0.1,0.2
			c0,0,0.1,0.1,0.1,0.2c0,0,0,0,0-0.1c0.1,0.1,0.1,0.1,0.1,0.2c0,0,0,0,0,0c0,0,0,0,0,0c0,0,0,0.1,0.1,0.1c0,0,0,0,0,0
			c1.3,1.7,5.8,7.5,18.7,24.1v0h0h52.6L52.6,0H0c0,0,0,0,0,0.1c0,0,0,0,0,0c0,0,0,0,0,0C0.1,0.1,0.1,0.2,0.1,0.2z"/>
		<path class="st0" d="M0.4,0.5c0,0,0.1,0.1,0.1,0.1c0,0,0,0,0,0C0.5,0.6,0.4,0.5,0.4,0.5z"/>
		<path class="st0" d="M0.1,0.1C0,0,0,0,0.1,0.1L0.1,0.1z"/>
		<path class="st0" d="M0.2,0.2C0.2,0.2,0.2,0.2,0.2,0.2C0.2,0.2,0.2,0.2,0.2,0.2z"/>
		<path class="st0" d="M0.5,0.7C0.5,0.7,0.5,0.7,0.5,0.7L0.5,0.7z"/>
		<path class="st0" d="M109.2,0.1C109.2,0.1,109.2,0.2,109.2,0.1C109.2,0.2,109.2,0.1,109.2,0.1z"/>
		<path class="st0" d="M109.1,0C109.1,0,109.1,0,109.1,0C109.1,0,109.1,0,109.1,0z"/>
		<path class="st0" d="M109.1,0.1C109.2,0.1,109.2,0.1,109.1,0.1C109.2,0.1,109.2,0.1,109.1,0.1z"/>
		<path class="st0" d="M109.1,0.1C109.1,0.1,109.1,0.1,109.1,0.1C109.1,0.1,109.1,0.1,109.1,0.1C109.1,0.1,109.1,0.1,109.1,0.1
			C109.1,0.1,109.1,0.1,109.1,0.1C109.1,0.1,109.1,0,109.1,0.1C109.1,0,109.1,0,109.1,0.1C109.1,0,109.1,0,109.1,0.1
			C109.1,0,109.1,0,109.1,0.1C109.1,0,109.1,0,109.1,0l0,0c0,0,0,0,0,0H66.9l19.3,24.8h12.2v34L87.1,44.3H49.7
			c15.6,20,28.2,36,52.2,66.8h26.8V25.4C112.7,4.7,109.6,0.7,109.1,0.1C109.1,0.1,109.1,0.1,109.1,0.1z"/>
		<path class="st0" d="M109.1,0.1C109.1,0.1,109.1,0.1,109.1,0.1C109.1,0.1,109.1,0.1,109.1,0.1z"/>
		<path class="st0" d="M109.2,0.2C109.2,0.2,109.2,0.2,109.2,0.2L109.2,0.2z"/>
		<path class="st0" d="M142.6,24.8h52.7c9.1,0,14,3.3,14,9.5v0.3c0,6.5-5.4,9.7-14.8,9.7h-49.4v66.8h57.3
			c26.5,0,42.1-11.6,42.1-30.6v-0.3c0-15.1-8.6-22.7-22.1-27.2c9.8-4.3,17.1-11.9,17.1-24.8V28c0-8.6-3.8-15.8-9.2-19.9
			c-6.5-5.2-15.7-8-28.2-8h-78.9C137.4,18.1,117.7-7.3,142.6,24.8z M213.8,75.9v0.3c0,6.5-5.2,10.2-14.8,10.2h-23.8V65.9h23.5
			C209,65.9,213.8,69.9,213.8,75.9z"/>
		<polygon class="st0" points="358.2,0 357.1,1.8 356,0 354.2,0 354.2,5.2 355.9,5.2 355.9,2.6 357.1,4.5 357.1,4.5 358.3,2.6 
			358.3,5.2 360,5.2 360,0 		"/>
		<polygon class="st0" points="350.4,5.2 352.1,5.2 352.1,1.5 353.6,1.5 353.6,0 348.9,0 348.9,1.5 350.4,1.5 		"/>
	</g>
</g>
</svg>
