<svg xmlns="http://www.w3.org/2000/svg" fill="none" viewBox="0 0 568 69"><path fill="url(#kk_logo_solo_black_rgb)" d="M38.9.12v18.23c0 11.23-9.11 20.34-20.34 20.34H.33V22.43h22.31V.12H38.9Zm10.32 28.55c-11.23 0-20.34 9.11-20.34 20.34v18.23h16.26V44.93h22.31V28.67H49.22Z"/><path fill="#000" d="M196.62.12h13.48v11.74h-13.48V.12Zm.19 67.14h13.09V16.12h-13.09v51.14Zm60.56-24.91c-1.23-1.18-2.72-2.15-4.42-2.89-1.69-.74-3.5-1.3-5.36-1.68l-10-2.14c-1.54-.36-2.79-.94-3.73-1.72-.9-.75-1.35-1.95-1.35-3.55 0-1.6.61-2.84 1.85-3.74 1.27-.91 2.94-1.38 4.98-1.38 2.04 0 3.81.56 5.13 1.68 1.3 1.1 2.02 2.81 2.14 5.08l.02.34h13.09l-.02-.38c-.26-5.69-2.29-10-6.04-12.83-3.72-2.8-8.54-4.23-14.32-4.23-3.11 0-5.93.4-8.37 1.2-2.45.8-4.55 1.92-6.25 3.32-1.71 1.41-3.03 3.09-3.94 5-.9 1.91-1.36 4.01-1.36 6.24 0 7.95 4.35 12.93 12.94 14.8l8.69 1.89c2.21.47 4.01 1.12 5.35 1.91 1.28.76 1.9 1.96 1.9 3.67 0 1.8-.76 3.08-2.32 3.9-1.61.85-3.6 1.29-5.92 1.29-5.4 0-8.27-2.39-8.77-7.3l-.03-.33h-13.07l.02.38c.26 5.62 2.29 10.01 6.03 13.04 3.72 3.02 9.04 4.55 15.83 4.55 3.37 0 6.41-.43 9.05-1.27 2.64-.85 4.89-2 6.68-3.44 1.8-1.44 3.2-3.16 4.16-5.1.95-1.94 1.44-4.06 1.44-6.29 0-2.23-.36-4.17-1.08-5.79a13.1 13.1 0 0 0-2.93-4.22m34.38-17.1c-2.73 0-5.03.84-6.82 2.51-1.79 1.66-2.69 3.84-2.69 6.5v1.42h19.07v-1.42c0-2.65-.91-4.84-2.69-6.5-1.79-1.67-4.11-2.51-6.87-2.51Zm16.73-3.34c2.01 2.17 3.56 4.79 4.62 7.78s1.59 6.26 1.59 9.73v6.59h-32.45v2.97c0 2.9.96 5.17 2.85 6.75 1.91 1.59 4.2 2.4 6.81 2.4 2.61 0 4.77-.69 6.4-2.04 1.63-1.35 2.61-3.29 2.92-5.75l.04-.32h13.1l-.06.41c-.82 5.67-3.24 10.14-7.22 13.3-3.96 3.14-9.12 4.74-15.33 4.74-3.6 0-6.88-.66-9.73-1.96-2.85-1.3-5.3-3.16-7.27-5.51-1.97-2.34-3.49-5.2-4.53-8.48-1.04-3.27-1.56-6.95-1.56-10.93 0-3.98.56-7.65 1.66-10.91 1.1-3.26 2.68-6.1 4.68-8.43 2-2.33 4.46-4.16 7.29-5.43 2.83-1.27 6.02-1.92 9.46-1.92 3.44 0 6.63.63 9.45 1.87 2.82 1.24 5.27 2.97 7.28 5.13m16.24 5.67v39.68h13.09V26.5h15.79V16.12H336.2c-6.32 0-11.46 5.14-11.46 11.46Zm35.68 39.68h13.09V.12h-13.09v67.14ZM135.34 16.12h-15.57l-12.23 16.46a11.455 11.455 0 0 0-.19 13.42l14.88 21.26h14.65l-19.85-28.02 18.31-23.12ZM89.71 67.26h13.09V.12H89.71v67.14Zm316.34-51.14h-15.57l-12.23 16.46a11.455 11.455 0 0 0-.19 13.42l14.88 21.26h14.65l-19.86-28.02 18.31-23.12h.01Zm6.33 11.46v39.68h13.09V26.5h15.79V16.12h-17.42c-6.32 0-11.46 5.14-11.46 11.46Zm47.25 19.13c-1.66.17-2.44 1.1-2.47 2.92v4.33c0 1.38.62 2.39 1.89 3.08 1.32.72 3.07 1.09 5.19 1.09 3.03 0 5.44-1.08 7.18-3.21 1.76-2.15 2.65-4.81 2.65-7.89v-1.58l-14.43 1.26h-.01Zm27.32 10.21h7.22v10.34h-14.3c-2.54 0-4.62-2.06-4.66-4.6l-.04-2.97c-1.44 2.6-3.34 4.71-5.65 6.27-2.45 1.66-5.69 2.5-9.64 2.5-2.35 0-4.54-.4-6.49-1.19-1.95-.79-3.69-1.9-5.16-3.31a14.712 14.712 0 0 1-3.44-5c-.8-1.9-1.21-4.06-1.21-6.42 0-4.17 1.46-7.81 4.35-10.82 2.88-3.01 7.09-4.79 12.5-5.28l13.63-1.14v-2.95c0-2.51-.67-4.35-1.99-5.44-1.34-1.11-3.22-1.68-5.56-1.68-2.34 0-4.41.58-5.91 1.74-1.5 1.14-2.22 2.78-2.22 5v.36h-13.1v-.37c.07-2.81.69-5.32 1.84-7.43a16.21 16.21 0 0 1 4.59-5.31c1.89-1.4 4.18-2.49 6.78-3.22 2.6-.73 5.46-1.1 8.5-1.1 6.11 0 11.01 1.51 14.58 4.48 3.58 2.99 5.39 7.42 5.39 13.17v24.36l-.01.01Zm16.36-45.35v4.54h-9.9V26.4h9.9v40.86h13.09V26.4h11.59V16.11H516.4v-5.66h12.56V.11h-14.18c-6.32 0-11.46 5.14-11.46 11.46M567.3 26.4V16.11h-12.56v-16h-13.09v16h-10V26.4h10v29.39c0 6.32 5.14 11.46 11.46 11.46h14.18V56.91h-12.56V26.39h12.56l.01.01ZM154.94 46.71c-1.66.17-2.44 1.1-2.47 2.92v4.33c0 1.38.62 2.39 1.89 3.08 1.32.72 3.07 1.09 5.19 1.09 3.03 0 5.44-1.08 7.18-3.21 1.76-2.15 2.65-4.81 2.65-7.89v-1.58l-14.43 1.26h-.01Zm27.32 10.21h7.22v10.34h-14.3c-2.54 0-4.62-2.06-4.66-4.6l-.04-2.97c-1.44 2.6-3.34 4.71-5.65 6.27-2.45 1.66-5.69 2.5-9.64 2.5-2.35 0-4.54-.4-6.49-1.19-1.95-.79-3.69-1.9-5.16-3.31a14.712 14.712 0 0 1-3.44-5c-.8-1.9-1.21-4.06-1.21-6.42 0-4.17 1.46-7.81 4.35-10.82 2.88-3.01 7.09-4.79 12.5-5.28l13.63-1.14v-2.95c0-2.51-.67-4.35-1.99-5.44-1.34-1.11-3.22-1.68-5.56-1.68-2.34 0-4.41.58-5.91 1.74-1.5 1.14-2.22 2.78-2.22 5v.36h-13.1v-.37c.07-2.81.69-5.32 1.84-7.43a16.21 16.21 0 0 1 4.59-5.31c1.89-1.4 4.18-2.49 6.78-3.22 2.6-.73 5.46-1.1 8.5-1.1 6.11 0 11.01 1.51 14.58 4.48 3.58 2.99 5.39 7.42 5.39 13.17v24.36l-.01.01Z"/><defs><linearGradient id="kk_logo_solo_black_rgb" x1="11.49" x2="56.3" y1="11.27" y2="56.08" gradientUnits="userSpaceOnUse"><stop offset=".12" stop-color="#FFC800"/><stop offset=".7" stop-color="#FF5014"/></linearGradient></defs><div xmlns="" id="divScriptsUsed" style="display: none"/><script xmlns="" id="globalVarsDetection" src="moz-extension://ef39b2cc-091f-419e-b580-cc98c4bc854c/js/wrs_env.js"/></svg>