<?xml version="1.0" encoding="UTF-8"?><svg id="a" xmlns="http://www.w3.org/2000/svg" viewBox="0 0 18.01 12"><rect x="0" width="18" height="12" style="fill:#f5f5f5; stroke-width:0px;"/><rect x="0" y="3.71" width="18" height=".92" style="fill:#ff4b55; stroke-width:0px;"/><rect x="0" y="1.86" width="18" height=".92" style="fill:#ff4b55; stroke-width:0px;"/><path d="M0,6.16C0,6.33.14,6.47.31,6.47h17.69v-.92H0v.61Z" style="fill:#ff4b55; stroke-width:0px;"/><rect x="0" y="9.24" width="18" height=".92" style="fill:#ff4b55; stroke-width:0px;"/><rect x="0" y="11.08" width="18" height=".92" style="fill:#ff4b55; stroke-width:0px;"/><rect x="0" y="7.4" width="18" height=".92" style="fill:#ff4b55; stroke-width:0px;"/><rect x="0" y=".02" width="18" height=".92" style="fill:#ff4b55; stroke-width:0px;"/><path d="M0,6.47h8.38V.01H0v6.46Z" style="fill:#41479b; stroke-width:0px;"/><path d="M.87.74l.07.21h.22s.04.04.02.06l-.17.13.07.21s-.02.05-.04.03l-.18-.13-.18.13s-.05,0-.04-.03l.07-.21-.17-.13s-.01-.05.02-.05h.22s.07-.21.07-.21c0-.03.05-.03.06,0Z" style="fill:#f5f5f5; stroke-width:0px;"/><path d="M.87,1.84l.07.21h.22s.04.04.02.06l-.17.13.07.21s-.02.05-.04.03l-.18-.13-.18.13s-.05,0-.04-.03l.07-.21-.17-.13s-.01-.05.02-.05h.22s.07-.21.07-.21c0-.03.05-.03.06,0Z" style="fill:#f5f5f5; stroke-width:0px;"/><path d="M.87,2.93l.07.21h.22s.04.04.02.06l-.17.13.07.21s-.02.05-.04.03l-.18-.13-.18.13s-.05,0-.04-.03l.07-.21-.17-.13s-.01-.05.02-.05h.22s.07-.21.07-.21c0-.03.05-.03.06,0Z" style="fill:#f5f5f5; stroke-width:0px;"/><path d="M.87,4.03l.07.21h.22s.04.04.02.06l-.17.13.07.21s-.02.05-.04.03l-.18-.13-.18.13s-.05,0-.04-.03l.07-.21-.17-.13s-.01-.05.02-.05h.22s.07-.21.07-.21c0-.03.05-.03.06,0Z" style="fill:#f5f5f5; stroke-width:0px;"/><path d="M.87,5.12l.07.21h.22s.04.04.02.06l-.17.13.07.21s-.02.05-.04.03l-.18-.13-.18.13s-.05,0-.04-.03l.07-.21-.17-.13s-.01-.05.02-.05h.22s.07-.21.07-.21c0-.03.05-.03.06,0Z" style="fill:#f5f5f5; stroke-width:0px;"/><path d="M1.71,1.28l.07.21h.22s.04.04.02.06l-.17.13.07.21s-.02.05-.04.03l-.18-.13-.18.13s-.05,0-.04-.03l.07-.21-.17-.13s-.01-.05.02-.05h.22s.07-.21.07-.21c0-.03.05-.03.06,0Z" style="fill:#f5f5f5; stroke-width:0px;"/><path d="M1.71,2.37l.07.21h.22s.04.04.02.06l-.17.13.07.21s-.02.05-.04.03l-.18-.13-.18.13s-.05,0-.04-.03l.07-.21-.17-.13s-.01-.05.02-.05h.22s.07-.21.07-.21c0-.03.05-.03.06,0Z" style="fill:#f5f5f5; stroke-width:0px;"/><path d="M1.71,3.47l.07.21h.22s.04.04.02.06l-.17.13.07.21s-.02.05-.04.03l-.18-.13-.18.13s-.05,0-.04-.03l.07-.21-.17-.13s-.01-.05.02-.05h.22s.07-.21.07-.21c0-.03.05-.03.06,0Z" style="fill:#f5f5f5; stroke-width:0px;"/><path d="M1.71,4.56l.07.21h.22s.04.04.02.06l-.17.13.07.21s-.02.05-.04.03l-.18-.13-.18.13s-.05,0-.04-.03l.07-.21-.17-.13s-.01-.05.02-.05h.22s.07-.21.07-.21c0-.03.05-.03.06,0Z" style="fill:#f5f5f5; stroke-width:0px;"/><path d="M2.54.74l.07.21h.22s.04.04.02.06l-.17.13.07.21s-.02.05-.04.03l-.18-.13-.18.13s-.05,0-.04-.03l.07-.21-.17-.13s-.01-.05.02-.05h.22s.07-.21.07-.21c0-.03.05-.03.06,0Z" style="fill:#f5f5f5; stroke-width:0px;"/><path d="M2.54,1.84l.07.21h.22s.04.04.02.06l-.17.13.07.21s-.02.05-.04.03l-.18-.13-.18.13s-.05,0-.04-.03l.07-.21-.17-.13s-.01-.05.02-.05h.22s.07-.21.07-.21c0-.03.05-.03.06,0Z" style="fill:#f5f5f5; stroke-width:0px;"/><path d="M2.54,2.93l.07.21h.22s.04.04.02.06l-.17.13.07.21s-.02.05-.04.03l-.18-.13-.18.13s-.05,0-.04-.03l.07-.21-.17-.13s-.01-.05.02-.05h.22s.07-.21.07-.21c0-.03.05-.03.06,0Z" style="fill:#f5f5f5; stroke-width:0px;"/><path d="M2.54,4.03l.07.21h.22s.04.04.02.06l-.17.13.07.21s-.02.05-.04.03l-.18-.13-.18.13s-.05,0-.04-.03l.07-.21-.17-.13s-.01-.05.02-.05h.22s.07-.21.07-.21c0-.03.05-.03.06,0Z" style="fill:#f5f5f5; stroke-width:0px;"/><path d="M2.54,5.12l.07.21h.22s.04.04.02.06l-.17.13.07.21s-.02.05-.04.03l-.18-.13-.18.13s-.05,0-.04-.03l.07-.21-.17-.13s-.01-.05.02-.05h.22s.07-.21.07-.21c0-.03.05-.03.06,0Z" style="fill:#f5f5f5; stroke-width:0px;"/><path d="M3.38,1.28l.07.21h.22s.04.04.02.06l-.17.13.07.21s-.02.05-.04.03l-.18-.13-.18.13s-.05,0-.04-.03l.07-.21-.17-.13s-.01-.05.02-.05h.22s.07-.21.07-.21c0-.03.05-.03.06,0Z" style="fill:#f5f5f5; stroke-width:0px;"/><path d="M3.38,2.37l.07.21h.22s.04.04.02.06l-.17.13.07.21s-.02.05-.04.03l-.18-.13-.18.13s-.05,0-.04-.03l.07-.21-.17-.13s-.01-.05.02-.05h.22s.07-.21.07-.21c0-.03.05-.03.06,0Z" style="fill:#f5f5f5; stroke-width:0px;"/><path d="M3.38,3.47l.07.21h.22s.04.04.02.06l-.17.13.07.21s-.02.05-.04.03l-.18-.13-.18.13s-.05,0-.04-.03l.07-.21-.17-.13s-.01-.05.02-.05h.22s.07-.21.07-.21c0-.03.05-.03.06,0Z" style="fill:#f5f5f5; stroke-width:0px;"/><path d="M3.38,4.56l.07.21h.22s.04.04.02.06l-.17.13.07.21s-.02.05-.04.03l-.18-.13-.18.13s-.05,0-.04-.03l.07-.21-.17-.13s-.01-.05.02-.05h.22s.07-.21.07-.21c0-.03.05-.03.06,0Z" style="fill:#f5f5f5; stroke-width:0px;"/><path d="M4.22.74l.07.21h.22s.04.04.02.06l-.17.13.07.21s-.02.05-.04.03l-.18-.13-.18.13s-.05,0-.04-.03l.07-.21-.17-.13s-.01-.05.02-.05h.22s.07-.21.07-.21c0-.03.05-.03.06,0Z" style="fill:#f5f5f5; stroke-width:0px;"/><path d="M4.22,1.84l.07.21h.22s.04.04.02.06l-.17.13.07.21s-.02.05-.04.03l-.18-.13-.18.13s-.05,0-.04-.03l.07-.21-.17-.13s-.01-.05.02-.05h.22s.07-.21.07-.21c0-.03.05-.03.06,0Z" style="fill:#f5f5f5; stroke-width:0px;"/><path d="M4.22,2.93l.07.21h.22s.04.04.02.06l-.17.13.07.21s-.02.05-.04.03l-.18-.13-.18.13s-.05,0-.04-.03l.07-.21-.17-.13s-.01-.05.02-.05h.22s.07-.21.07-.21c0-.03.05-.03.06,0Z" style="fill:#f5f5f5; stroke-width:0px;"/><path d="M4.22,4.03l.07.21h.22s.04.04.02.06l-.17.13.07.21s-.02.05-.04.03l-.18-.13-.18.13s-.05,0-.04-.03l.07-.21-.17-.13s-.01-.05.02-.05h.22s.07-.21.07-.21c0-.03.05-.03.06,0Z" style="fill:#f5f5f5; stroke-width:0px;"/><path d="M4.22,5.12l.07.21h.22s.04.04.02.06l-.17.13.07.21s-.02.05-.04.03l-.18-.13-.18.13s-.05,0-.04-.03l.07-.21-.17-.13s-.01-.05.02-.05h.22s.07-.21.07-.21c0-.03.05-.03.06,0Z" style="fill:#f5f5f5; stroke-width:0px;"/><path d="M5.05,1.28l.07.21h.22s.04.04.02.06l-.17.13.07.21s-.02.05-.04.03l-.18-.13-.18.13s-.05,0-.04-.03l.07-.21-.17-.13s-.01-.05.02-.05h.22s.07-.21.07-.21c0-.03.05-.03.06,0Z" style="fill:#f5f5f5; stroke-width:0px;"/><path d="M5.05,2.37l.07.21h.22s.04.04.02.06l-.17.13.07.21s-.02.05-.04.03l-.18-.13-.18.13s-.05,0-.04-.03l.07-.21-.17-.13s-.01-.05.02-.05h.22s.07-.21.07-.21c0-.03.05-.03.06,0Z" style="fill:#f5f5f5; stroke-width:0px;"/><path d="M5.05,3.47l.07.21h.22s.04.04.02.06l-.17.13.07.21s-.02.05-.04.03l-.18-.13-.18.13s-.05,0-.04-.03l.07-.21-.17-.13s-.01-.05.02-.05h.22s.07-.21.07-.21c0-.03.05-.03.06,0Z" style="fill:#f5f5f5; stroke-width:0px;"/><path d="M5.05,4.56l.07.21h.22s.04.04.02.06l-.17.13.07.21s-.02.05-.04.03l-.18-.13-.18.13s-.05,0-.04-.03l.07-.21-.17-.13s-.01-.05.02-.05h.22s.07-.21.07-.21c0-.03.05-.03.06,0Z" style="fill:#f5f5f5; stroke-width:0px;"/><path d="M5.89.74l.07.21h.22s.04.04.02.06l-.17.13.07.21s-.02.05-.04.03l-.18-.13-.18.13s-.05,0-.04-.03l.07-.21-.17-.13s-.01-.05.02-.05h.22s.07-.21.07-.21c0-.03.05-.03.06,0Z" style="fill:#f5f5f5; stroke-width:0px;"/><path d="M5.89,1.84l.07.21h.22s.04.04.02.06l-.17.13.07.21s-.02.05-.04.03l-.18-.13-.18.13s-.05,0-.04-.03l.07-.21-.17-.13s-.01-.05.02-.05h.22s.07-.21.07-.21c0-.03.05-.03.06,0Z" style="fill:#f5f5f5; stroke-width:0px;"/><path d="M5.89,2.93l.07.21h.22s.04.04.02.06l-.17.13.07.21s-.02.05-.04.03l-.18-.13-.18.13s-.05,0-.04-.03l.07-.21-.17-.13s-.01-.05.02-.05h.22s.07-.21.07-.21c0-.03.05-.03.06,0Z" style="fill:#f5f5f5; stroke-width:0px;"/><path d="M5.89,4.03l.07.21h.22s.04.04.02.06l-.17.13.07.21s-.02.05-.04.03l-.18-.13-.18.13s-.05,0-.04-.03l.07-.21-.17-.13s-.01-.05.02-.05h.22s.07-.21.07-.21c0-.03.05-.03.06,0Z" style="fill:#f5f5f5; stroke-width:0px;"/><path d="M5.89,5.12l.07.21h.22s.04.04.02.06l-.17.13.07.21s-.02.05-.04.03l-.18-.13-.18.13s-.05,0-.04-.03l.07-.21-.17-.13s-.01-.05.02-.05h.22s.07-.21.07-.21c0-.03.05-.03.06,0Z" style="fill:#f5f5f5; stroke-width:0px;"/><path d="M6.73,1.28l.07.21h.22s.04.04.02.06l-.17.13.07.21s-.02.05-.04.03l-.18-.13-.18.13s-.05,0-.04-.03l.07-.21-.17-.13s-.01-.05.02-.05h.22s.07-.21.07-.21c0-.03.05-.03.06,0Z" style="fill:#f5f5f5; stroke-width:0px;"/><path d="M6.73,2.37l.07.21h.22s.04.04.02.06l-.17.13.07.21s-.02.05-.04.03l-.18-.13-.18.13s-.05,0-.04-.03l.07-.21-.17-.13s-.01-.05.02-.05h.22s.07-.21.07-.21c0-.03.05-.03.06,0Z" style="fill:#f5f5f5; stroke-width:0px;"/><path d="M6.73,3.47l.07.21h.22s.04.04.02.06l-.17.13.07.21s-.02.05-.04.03l-.18-.13-.18.13s-.05,0-.04-.03l.07-.21-.17-.13s-.01-.05.02-.05h.22s.07-.21.07-.21c0-.03.05-.03.06,0Z" style="fill:#f5f5f5; stroke-width:0px;"/><path d="M6.73,4.56l.07.21h.22s.04.04.02.06l-.17.13.07.21s-.02.05-.04.03l-.18-.13-.18.13s-.05,0-.04-.03l.07-.21-.17-.13s-.01-.05.02-.05h.22s.07-.21.07-.21c0-.03.05-.03.06,0Z" style="fill:#f5f5f5; stroke-width:0px;"/><path d="M7.56.74l.07.21h.22s.04.04.02.06l-.17.13.07.21s-.02.05-.04.03l-.18-.13-.18.13s-.05,0-.04-.03l.07-.21-.17-.13s-.01-.05.02-.05h.22s.07-.21.07-.21c0-.03.05-.03.06,0Z" style="fill:#f5f5f5; stroke-width:0px;"/><path d="M7.56,1.84l.07.21h.22s.04.04.02.06l-.17.13.07.21s-.02.05-.04.03l-.18-.13-.18.13s-.05,0-.04-.03l.07-.21-.17-.13s-.01-.05.02-.05h.22s.07-.21.07-.21c0-.03.05-.03.06,0Z" style="fill:#f5f5f5; stroke-width:0px;"/><path d="M7.56,2.93l.07.21h.22s.04.04.02.06l-.17.13.07.21s-.02.05-.04.03l-.18-.13-.18.13s-.05,0-.04-.03l.07-.21-.17-.13s-.01-.05.02-.05h.22s.07-.21.07-.21c0-.03.05-.03.06,0Z" style="fill:#f5f5f5; stroke-width:0px;"/><path d="M7.56,4.03l.07.21h.22s.04.04.02.06l-.17.13.07.21s-.02.05-.04.03l-.18-.13-.18.13s-.05,0-.04-.03l.07-.21-.17-.13s-.01-.05.02-.05h.22s.07-.21.07-.21c0-.03.05-.03.06,0Z" style="fill:#f5f5f5; stroke-width:0px;"/><path d="M7.56,5.12l.07.21h.22s.04.04.02.06l-.17.13.07.21s-.02.05-.04.03l-.18-.13-.18.13s-.05,0-.04-.03l.07-.21-.17-.13s-.01-.05.02-.05h.22s.07-.21.07-.21c0-.03.05-.03.06,0Z" style="fill:#f5f5f5; stroke-width:0px;"/></svg>